<?xml version="1.0" encoding="utf-8"?>
<!-- Generator: Adobe Illustrator 21.0.2, SVG Export Plug-In . SVG Version: 6.00 Build 0)  -->
<svg version="1.1" id="Capa_1" xmlns="http://www.w3.org/2000/svg" xmlns:xlink="http://www.w3.org/1999/xlink" x="0px" y="0px"
	 viewBox="0 0 496.9 496.9" style="enable-background:new 0 0 496.9 496.9;" xml:space="preserve">
<style type="text/css">
	.st0{fill:#C37CD6;}
	.st1{fill:#008040;}
	.st2{fill:#83E26F;}
</style>
<g>
	<path class="st0" d="M226.9,47.9c-8.1,0-17.5,3.2-25.8,8.7c-5.2,3.4-9.5,7.5-12.8,11.7c4.4,3,8.2,7.6,10.9,13.6
		c2.1,4.6,3.6,9.9,4.3,15.4c6.4-1.2,13.1-4,19.3-8.1c15.7-10.5,24-26.8,18.1-35.6C237.6,48.6,230.7,47.9,226.9,47.9z"/>
	<path class="st0" d="M184.3,15.4c-0.4-0.1-0.9-0.1-1.3-0.1c-7.9,0-15.7,8.7-19.9,20.8c2.4,2.6,4.6,5.4,6.6,8.5
		c3.7,5.5,6.5,11.4,8.3,17.3c4.2-5.6,9.7-10.8,16.4-15.3c1.8-1.2,3.6-2.2,5.4-3.2c-0.2-6.4-1.4-12.3-3.7-17.3
		C194.4,22.4,190.6,16.2,184.3,15.4z"/>
	<path class="st0" d="M158.7,125.9c-1.5-4.6-3.7-9.3-6.7-13.8c-7.9-11.9-19.6-20-29-20c-2.6,0-4.8,0.6-6.6,1.8
		c-8.9,5.9-7.5,24.1,2.9,39.9c2,3,4.2,5.6,6.5,8c4.2,1.4,8.4,3.6,12.4,6.5C142.9,137.5,150.3,129.4,158.7,125.9z"/>
	<path class="st0" d="M144.3,172.1c-7.9-11.9-19.6-20-29-20c-2.6,0-4.8,0.6-6.6,1.8c-8.9,5.9-7.5,24.1,2.9,39.9
		c7.9,11.9,19.6,20,29,20c0,0,0,0,0,0c2.6,0,4.8-0.6,6.6-1.8c5.3-3.5,5.9-10.8,5.8-14.8C152.9,189.1,149.8,180.2,144.3,172.1z"/>
	<path class="st0" d="M246.1,114.4c1.8,6.3,1,13.5-2.4,21.1c-0.2,0.5-0.4,1-0.7,1.4c0.7,4.1,1.8,8.3,3.5,12.4
		c6.9,16.8,18.9,25.6,27.2,25.6c1.5,0,2.8-0.3,4.1-0.8c9.8-4,12.1-22.2,5-39.6c-6.9-16.8-18.9-25.6-27.2-25.6
		c-1.5,0-2.8,0.3-4.1,0.8C249.2,110.6,247.4,112.4,246.1,114.4z"/>
	<path class="st0" d="M181.6,218.9L181.6,218.9c8.1,0,17.5-3.2,25.8-8.7c8.1-5.4,14.4-12.4,17.7-19.7c1.7-3.7,3.9-10.6,0.4-15.9
		c-3.4-5-10.2-5.8-14-5.8c-8.1,0-17.5,3.2-25.8,8.7c-15.7,10.4-24,26.8-18.1,35.6C170.9,218.1,177.8,218.9,181.6,218.9z"/>
	<path class="st0" d="M179.1,167.5c1.8-1.2,3.6-2.2,5.4-3.2c-0.2-6.4-1.4-12.3-3.7-17.3c-1.7-3.7-5.5-9.9-11.8-10.7
		c-0.4-0.1-0.9-0.1-1.3-0.1c-7.9,0-15.7,8.7-19.9,20.8c2.4,2.6,4.6,5.4,6.6,8.5c3.7,5.5,6.5,11.4,8.3,17.3
		C166.8,177.2,172.4,171.9,179.1,167.5z"/>
	<path class="st0" d="M191.6,141.9c2.3,4.9,3.7,10.5,4.4,16.4c6.3-1.2,13-4,19-8c8.1-5.4,14.4-12.4,17.7-19.7
		c1.7-3.7,3.9-10.6,0.4-15.9c-3.4-5-10.2-5.8-14-5.8c-8.1,0-17.5,3.2-25.8,8.7c-4.9,3.2-9,7-12.2,11
		C185.3,131.6,188.9,136.1,191.6,141.9z"/>
	<path class="st0" d="M170.3,122.9c4.2-5.6,9.7-10.9,16.4-15.3c1.8-1.2,3.5-2.2,5.4-3.2c-0.2-6.4-1.4-12.3-3.7-17.3
		c-1.7-3.7-5.5-9.9-11.8-10.7c-0.4-0.1-0.9-0.1-1.3-0.1c-7.9,0-15.7,8.7-19.9,20.8c2.4,2.6,4.6,5.4,6.6,8.5
		C165.7,111.1,168.5,117,170.3,122.9z"/>
	<path class="st0" d="M130.7,31.3c-2.6,0-4.8,0.6-6.6,1.8c-8.9,5.9-7.5,24.1,2.9,39.9c2.4,3.7,5.2,6.9,8.2,9.7
		c3.6,1.4,7.1,3.4,10.5,5.8c4.8-11.1,12.3-19.3,20.9-22.6c-1.5-4.9-3.8-9.9-7-14.6C151.8,39.3,140.1,31.3,130.7,31.3z"/>
</g>
<g>
	<path class="st0" d="M291.4,124.2c0.9,1.8,1.8,3.7,2.6,5.7c3,7.5,4.7,14.9,5,21.8c4.8-3.8,10.5-7.1,16.6-9.7
		c3.4-1.4,6.8-2.5,10.3-3.3c3.6-13.2,1.5-25.3-5.9-29.1c-1.5-0.8-3.2-1.2-5.1-1.2C307.2,108.6,298.2,114.8,291.4,124.2z"/>
	<path class="st0" d="M318.7,70.4c0.9,1.8,1.8,3.7,2.6,5.7c3,7.3,4.6,14.8,4.9,21.9c4.8-3.9,10.5-7.2,16.7-9.7
		c3.4-1.4,6.8-2.5,10.3-3.3c1.4-5.2,2-10.3,1.5-15c-0.4-4-1.8-11.2-7.5-14.1c-1.5-0.8-3.2-1.2-5.1-1.2
		C334.5,54.8,325.6,60.9,318.7,70.4z"/>
	<path class="st0" d="M342.1,42.8c-0.4-5.5-1.7-11.2-4-16.9c-6.9-16.8-18.9-25.6-27.2-25.6c-1.5,0-2.8,0.3-4.1,0.8
		c-9.8,4-12.1,22.2-5,39.6c3,7.5,7.1,13.3,11.4,17.5C321.7,48.7,332.2,42.8,342.1,42.8z"/>
	<path class="st0" d="M381.1,30.2c1.4-5.2,2-10.3,1.6-15c-0.4-4-1.8-11.2-7.5-14.1C373.6,0.4,371.9,0,370,0
		c-7.7,0-16.6,6.2-23.5,15.6c0.9,1.8,1.8,3.7,2.6,5.7c3,7.3,4.6,14.8,4.9,21.9c4.8-3.9,10.5-7.2,16.7-9.7
		C374.2,32.2,377.6,31.1,381.1,30.2z"/>
	<path class="st0" d="M334.9,189.6c17.5-7.1,28.8-21.5,24.8-31.3c-2.3-5.6-9.9-9.1-19.8-9.1c-6.4,0-13.2,1.4-19.8,4.1
		c-9.1,3.7-16.6,9.3-21.3,15.8c-2.4,3.3-5.9,9.6-3.5,15.5c2.3,5.6,9.9,9.2,19.8,9.2C321.5,193.7,328.3,192.3,334.9,189.6z"/>
	<path class="st0" d="M387.1,104.4c-2.3-5.6-9.9-9.1-19.8-9.1c-6.4,0-13.2,1.4-19.8,4.1c-5,2-9.4,4.6-13.3,7.6
		c5.1,7.6,6.6,18.4,4.4,30.1c0.5,0,0.9,0,1.4,0c4.5,0,8.7,0.6,12.5,1.6c3.3-0.7,6.6-1.7,9.8-3C379.8,128.6,391.2,114.3,387.1,104.4z
		"/>
	<path class="st0" d="M314.2,96.6c-0.4-5.2-1.8-10.6-4-16C303.4,63.8,291.4,55,283,55c-1.5,0-2.8,0.3-4.1,0.8
		c-5.9,2.4-7.9,9.4-8.6,13.4c-1.4,7.9-0.1,17.2,3.6,26.3c3,7.4,7,13.2,11.2,17.4C293.7,103,304.2,96.9,314.2,96.6z"/>
	<path class="st0" d="M415,49.7c-2.3-5.6-9.9-9.2-19.8-9.2c-6.4,0-13.2,1.4-19.8,4.1c-5.3,2.1-10,4.9-14,8.2c3,4.3,4.8,9.7,5.4,16.1
		c0.4,4.6,0.1,9.5-0.8,14.4c0.5,0,0.9,0,1.4,0c3.8,0,7.4,0.4,10.7,1.1c4-0.7,8.1-1.8,12.1-3.4C407.6,73.9,419,59.5,415,49.7z"/>
</g>
<path class="st0" d="M215.9,267.1c-7.1-17.4-19.6-26.5-28.2-26.5c-1.5,0-3,0.3-4.3,0.8c-6.1,2.5-8.3,9.8-9,13.9
	c-1.4,8.1-0.1,17.8,3.7,27.2c4,9.7,9.6,16.9,15.3,21.3c6.7,0,12.6,1.6,17.2,4.4C220.9,304,223.3,285.2,215.9,267.1z"/>
<path class="st0" d="M269.5,324.1c18.1-7.4,29.9-22.3,25.7-32.5c-2.4-5.9-10.3-9.6-20.6-9.6c-6.6,0-13.7,1.5-20.5,4.3
	c-9.4,3.8-17.2,9.6-22,16.3c-2.4,3.4-6.2,10-3.7,16.2c2.4,5.9,10.3,9.6,20.6,9.6C255.6,328.4,262.7,326.9,269.5,324.1z"/>
<path class="st0" d="M142.9,330.8c4.3-5.8,10.1-11.3,17.1-16c1.8-1.2,3.7-2.4,5.6-3.4c-0.4-15.5-7-28-16.2-29.2
	c-0.5-0.1-0.9-0.1-1.4-0.1c-8.2,0-16.4,9-20.8,21.7c2.5,2.7,4.8,5.6,6.9,8.8C138.1,318.4,141,324.6,142.9,330.8z"/>
<path class="st0" d="M133.2,345.2c-0.2-8.3-3.4-17.5-9-25.9c-8.2-12.4-20.3-20.7-30.1-20.7c-2.7,0-5,0.7-6.9,1.9
	c-5.5,3.7-6.2,11.3-6.1,15.5c0.2,8.3,3.4,17.5,9,25.9c8.2,12.4,20.3,20.7,30.1,20.7c0,0,0,0,0,0c2.7,0,5-0.7,6.9-1.9
	C132.7,357,133.3,349.4,133.2,345.2z"/>
<path class="st0" d="M207.6,338.4c1.7-3.8,4.1-11.1,0.4-16.6c-3.5-5.3-10.7-6.1-14.6-6.1c-8.4,0-18.1,3.3-26.8,9
	c-16.3,10.8-24.9,27.8-18.7,37c3.5,5.3,10.7,6.1,14.6,6.1c0,0,0,0,0,0c8.4,0,18.1-3.3,26.8-9C197.6,353.2,204.2,345.9,207.6,338.4z"
	/>
<path class="st1" d="M150.9,270.3c4.7,0.6,8.9,2.6,12.6,5.6c-1.8-7.9-2.1-15.7-0.9-22.7c1.7-9.5,6-16.8,12.4-21
	c0.1-0.6,0.1-1.3,0.2-1.9c-7.7-1.3-13.8-4.9-17.6-10.6c-0.1-0.2-0.2-0.4-0.3-0.5c-0.5,0.5-1,0.9-1.5,1.3c-0.2,3.7-0.5,7.5-0.9,11.5
	c-0.9,11.2-2.4,23.9-4.4,38.3C150.7,270.3,150.8,270.3,150.9,270.3z"/>
<path class="st2" d="M195.9,368.8c-3.8,2.5-7.7,4.6-11.6,6.3c-9,33.8-16.6,70.7-21.5,110.6c-0.7,5.5,3.2,10.5,8.7,11.1
	c0.4,0.1,0.8,0.1,1.2,0.1c5,0,9.3-3.7,9.9-8.8c6-48.8,16.1-93.1,28-132.3C206.4,360.6,201.5,365,195.9,368.8z"/>
<path class="st1" d="M137.9,368.4c-0.2-0.2-0.3-0.5-0.5-0.7c-1.1,1.1-2.3,2.1-3.6,2.9c-1.5,1-3.1,1.8-4.7,2.4
	c-8.4,31.4-19.3,66.3-33.4,104.4c-1.9,5.2,0.7,10.9,5.9,12.8c1.1,0.4,2.3,0.6,3.5,0.6c4.1,0,7.9-2.5,9.4-6.5
	c14.5-39.1,25.6-74.9,34.2-107.2C144.1,375.3,140.5,372.3,137.9,368.4z"/>
<path class="st2" d="M248.7,228.3c3.9,0,7.5,0.8,10.8,2.5c0.2,0.1,0.4,0.2,0.7,0.4c1.5-2.9,3-5.8,4.4-8.6
	c6.6-12.7,13.1-24.2,19.3-34.5c-0.4-1-0.7-2.1-0.9-3.1c-0.2,0.1-0.4,0.2-0.6,0.3c-2.7,1.1-5.6,1.7-8.6,1.7c-3.7,0-7.4-0.8-11-2.4
	c-5,8.6-10.2,18-15.5,28.1c-2.9,5.5-5.9,11.4-8.9,17.6C241.7,229,245.3,228.3,248.7,228.3z"/>
<path class="st0" d="M254.1,241.5c-1.6-0.8-3.4-1.2-5.3-1.2c-8,0-17.3,6.4-24.4,16.3c1,1.9,1.9,3.9,2.8,6c3.2,7.8,4.8,15.6,5.1,22.8
	c5-4.1,10.9-7.5,17.4-10.2c3.5-1.4,7.1-2.6,10.7-3.4c1.5-5.4,2.1-10.8,1.6-15.7C261.5,252,260,244.5,254.1,241.5z"/>
</svg>
