<?xml version="1.0" encoding="utf-8"?>
<!-- Generator: Adobe Illustrator 21.0.2, SVG Export Plug-In . SVG Version: 6.00 Build 0)  -->
<svg version="1.1" id="Capa_1" xmlns="http://www.w3.org/2000/svg" xmlns:xlink="http://www.w3.org/1999/xlink" x="0px" y="0px"
	 viewBox="0 0 58 58" style="enable-background:new 0 0 58 58;" xml:space="preserve">
<style type="text/css">
	.st0{fill:#D690D1;}
	.st1{fill:#F7A1F2;}
	.st2{fill:#64A065;}
	.st3{fill:#D6C990;}
	.st4{fill:#73BF76;}
	.st5{fill:#D143CF;}
	.st6{fill:#EF4AE6;}
</style>
<polygon class="st0" points="0,30.6 0,53.5 2.8,52.4 12.3,42.9 "/>
<polygon class="st0" points="15,9.5 11.4,5.9 0,10.5 0,15 15,30 "/>
<polygon class="st1" points="29,26.2 29,23.5 15,9.5 15,30 20.1,35.1 "/>
<polygon class="st2" points="29,44 29,41.7 27.8,42.9 "/>
<polygon class="st2" points="38.1,32.6 29,41.7 29,44 35.6,50.7 43,47.5 43,37.5 "/>
<polygon class="st0" points="43,12.2 43,4.5 30.8,9.7 38.1,17.1 "/>
<polygon class="st3" points="30.3,24.8 29,23.5 29,26.2 "/>
<polygon class="st1" points="48.2,6.9 43,4.5 43,12.2 "/>
<polygon class="st4" points="58,37 58,12.7 45.9,24.8 "/>
<polygon class="st4" points="43,47.5 58,53.5 58,52.5 43,37.5 "/>
<polygon class="st5" points="15,40.2 15,30 0,15 0,30.6 12.3,42.9 "/>
<polygon class="st6" points="20.8,50 29,53.5 29,44 27.8,42.9 "/>
<polygon class="st6" points="15,30 15,40.2 20.1,35.1 "/>
<polygon class="st5" points="29,53.5 35.6,50.7 29,44 "/>
<polygon class="st5" points="15,4.5 11.4,5.9 15,9.5 "/>
<polygon class="st6" points="29,10.5 15,4.5 15,9.5 29,23.5 "/>
<polygon class="st5" points="29,23.5 30.3,24.8 38.1,17.1 30.8,9.7 29,10.5 "/>
<polygon class="st5" points="43,37.5 43,27.7 38.1,32.6 "/>
<polygon class="st6" points="45.9,24.8 43,27.7 43,37.5 58,52.5 58,37 "/>
<polygon class="st5" points="15,45.6 12.3,42.9 2.8,52.4 15,47.5 "/>
<polygon class="st6" points="15,47.5 18.3,48.9 15,45.6 "/>
<polygon class="st6" points="20.1,35.1 27.8,42.9 29,41.7 29,26.2 "/>
<polygon class="st5" points="43,12.2 38.1,17.1 43,22 "/>
<polygon class="st5" points="29,26.2 29,41.7 38.1,32.6 30.3,24.8 "/>
<polygon class="st6" points="43,22 45.9,24.8 58,12.7 58,11.5 48.2,6.9 43,12.2 "/>
<polygon class="st5" points="12.3,42.9 15,45.6 15,40.2 "/>
<polygon class="st6" points="20.1,35.1 15,40.2 15,45.6 18.3,48.9 20.8,50 27.8,42.9 "/>
<polygon class="st5" points="38.1,17.1 30.3,24.8 38.1,32.6 43,27.7 43,22 "/>
<polygon class="st6" points="43,27.7 45.9,24.8 43,22 "/>
</svg>
