<?xml version="1.0" encoding="utf-8"?>
<!-- Generator: Adobe Illustrator 21.0.2, SVG Export Plug-In . SVG Version: 6.00 Build 0)  -->
<svg version="1.1" id="Capa_1" xmlns="http://www.w3.org/2000/svg" xmlns:xlink="http://www.w3.org/1999/xlink" x="0px" y="0px"
	 viewBox="0 0 512 512" style="enable-background:new 0 0 512 512;" xml:space="preserve">
<style type="text/css">
	.st0{fill:#F2AD49;}
	.st1{fill:#DD983C;}
	.st2{fill:#566468;}
	.st3{fill:#3E4E51;}
	.st4{fill:#A317DD;}
	.st5{fill:#EAEAE4;}
	.st6{fill:#9CDD05;}
	.st7{fill:#7FA80E;}
	.st8{fill:#AE4ADD;}
	.st9{fill:#D6D6D2;}
</style>
<g>
	<path class="st0" d="M287.6,335.6c-9.7,0.4-26.2,1.6-43.8,4.1c-26.9,3.8-56.1,10.5-67.2,21.6l-11.2-11.2c9.5-9.5,28-17.1,55.1-22.5
		c5.2-1,10.8-2,16.6-2.9c26.1-3.9,48.9-4.8,49.8-4.9L287.6,335.6z"/>
	<path class="st0" d="M161.9,346.6l-11.2-11.2c11.1-11.1,17.8-40.3,21.6-67.2c2.5-17.5,3.7-34,4.1-43.8l15.8,0.6
		c0,1-0.9,23.7-4.9,49.8c-0.9,5.9-1.9,11.4-2.9,16.6C179,318.5,171.4,337,161.9,346.6z"/>
	<polygon class="st0" points="239.2,297.2 213.9,322.5 123.2,413.2 98.8,388.8 190,297.7 215.4,272.3 	"/>
</g>
<g>
	<polygon class="st1" points="226.7,284.1 215.4,272.3 98.8,388.8 110.4,400.4 	"/>
	<path class="st1" d="M215.4,272.3L190,297.7c3.8,5.2,8,10.1,12.6,14.8c3.6,3.6,7.4,6.9,11.3,10l25.3-25.3L215.4,272.3z"/>
</g>
<path class="st2" d="M25.8,508.8L3.2,486.2c-4.2-4.2-4.2-11,0-15.2l93-93c4.2-4.2,11-4.2,15.2,0l22.6,22.6c4.2,4.2,4.2,11,0,15.2
	l-93,93C36.8,513.1,30,513.1,25.8,508.8z"/>
<path class="st1" d="M287,319.8c-1,0-23.7,0.9-49.8,4.9c-5.9,0.9-11.4,1.9-16.6,2.9c7.3,4.8,15.1,8.8,23.3,12.1
	c17.5-2.5,34-3.7,43.8-4.1L287,319.8z M192.2,225l-15.8-0.6c-0.4,9.7-1.6,26.3-4.1,43.8c3.2,8.1,7.2,15.9,12.1,23.3
	c1-5.2,2-10.8,2.9-16.6C191.2,248.7,192.1,226,192.2,225z"/>
<path class="st3" d="M19.8,487.6l93-93c4.2-4.2,11-4.2,15.2,0L111.4,378c-4.2-4.2-11-4.2-15.2,0l-93,93c-4.2,4.2-4.2,11,0,15.2
	l16.6,16.6C15.6,498.6,15.6,491.8,19.8,487.6z"/>
<path class="st4" d="M473.7,38.3C414.6-20.9,308.2-10.3,236,61.8s-82.7,178.5-23.5,237.7c59.1,59.1,165.5,48.6,237.7-23.5
	C522.3,203.8,532.9,97.4,473.7,38.3z M423.1,248.9c-28.6,28.6-64.3,46.4-100.4,50c-33.3,3.3-62.8-6.1-83.1-26.4
	s-29.7-49.9-26.4-83.1c3.6-36.1,21.3-71.8,50-100.4s64.3-46.4,100.4-50c33.3-3.3,62.8,6.1,83.1,26.4s29.7,49.9,26.4,83.1
	C469.5,184.6,451.8,220.2,423.1,248.9z"/>
<g>
	
		<rect x="196.7" y="161" transform="matrix(0.7071 -0.7071 0.7071 0.7071 -18.9324 292.0827)" class="st5" width="292.9" height="15.8"/>
	
		<rect x="261.6" y="203.4" transform="matrix(0.7071 -0.7071 0.7071 0.7071 -36.5082 334.5052)" class="st5" width="247.8" height="15.8"/>
	
		<rect x="176.8" y="118.6" transform="matrix(0.7071 -0.7071 0.7071 0.7071 -1.3599 249.6591)" class="st5" width="247.8" height="15.8"/>
	
		<rect x="377.6" y="23.3" transform="matrix(0.7071 -0.7071 0.7071 0.7071 23.4843 309.6439)" class="st5" width="15.8" height="206.4"/>
	
		<rect x="335.2" y="55.8" transform="matrix(0.7071 -0.7071 0.7071 0.7071 -18.9284 292.08)" class="st5" width="15.8" height="226.3"/>
	
		<rect x="420.1" y="19.5" transform="matrix(0.7071 -0.7071 0.7071 0.7071 65.9127 327.2249)" class="st5" width="15.8" height="129.1"/>
	
		<rect x="292.8" y="108.1" transform="matrix(0.7071 -0.7071 0.7071 0.7071 -61.3511 274.5058)" class="st5" width="15.8" height="206.4"/>
	
		<rect x="250.4" y="189.2" transform="matrix(0.7071 -0.7071 0.7071 0.7071 -103.776 256.9354)" class="st5" width="15.8" height="129.1"/>
	
		<rect x="335.2" y="55.7" transform="matrix(0.7071 -0.7071 0.7071 0.7071 -18.9253 292.0883)" class="st5" width="15.8" height="226.3"/>
</g>
<path class="st6" d="M201.2,139.8c-9.9,9.9-22.3,15.8-35.1,17.8c-5.2,0.8-10.5,0.9-15.8,0.4c-14-1.4-27.6-7.4-38.3-18.2
	c-10.7-10.7-16.8-24.3-18.2-38.3c-0.5-5.2-0.4-10.5,0.4-15.8c1.9-12.9,7.9-25.2,17.8-35.1c9.9-9.9,22.3-15.8,35.1-17.8
	c5.2-0.8,10.5-0.9,15.8-0.4c14,1.4,27.6,7.4,38.3,18.2c10.7,10.7,16.8,24.3,18.2,38.3c0.5,5.2,0.4,10.6-0.4,15.8
	C217,117.5,211.1,129.9,201.2,139.8z"/>
<path class="st7" d="M147.7,139.8c-24.6-24.6-24.6-64.6,0-89.2c7.7-7.7,16.9-13,26.7-15.9c-21.4-6.3-45.6-1-62.5,15.9
	c-24.6,24.6-24.6,64.6,0,89.2c16.9,16.9,41,22.2,62.5,15.9C164.7,152.8,155.5,147.5,147.7,139.8z"/>
<g>
	<path class="st5" d="M166.1,157.6c-5.2,0.8-10.5,0.9-15.8,0.4c0.1-6.3-0.8-12.4-2.6-18.2c-2.6-8.2-7.2-15.8-13.6-22.1
		c-0.4-0.4-0.8-0.8-1.2-1.1c-10.6-10-24.4-15.4-39.1-15c-0.5-5.2-0.4-10.5,0.4-15.8c12.5-0.1,24.4,2.9,35,8.7
		c5.8,3.2,11.2,7.2,16,12.1c12.5,12.5,19.7,28.6,20.7,46C166.1,154.2,166.1,155.9,166.1,157.6z"/>
	<path class="st5" d="M219,104.7c-19.3,0.3-37.4-7.1-51.1-20.8c-9.6-9.6-16.1-21.5-19-34.4c-1.2-5.4-1.8-11-1.7-16.7
		c5.2-0.8,10.5-0.9,15.8-0.4c-0.1,2.3,0,4.6,0.2,6.8c1.2,12.6,6.7,24.3,15.9,33.5c10.8,10.8,25.1,16.5,40.3,16.1
		C219.9,94.1,219.8,99.5,219,104.7z"/>
</g>
<path class="st8" d="M234,278c-22-22-32.2-53.8-28.7-89.5c3.8-37.9,22.3-75.3,52.2-105.2s67.3-48.5,105.2-52.2
	c35.7-3.5,67.4,6.7,89.5,28.7s32.2,53.8,28.7,89.5c-3.8,37.9-22.3,75.3-52.2,105.2s-67.3,48.5-105.2,52.2
	C287.8,310.2,256,300.1,234,278z M441.1,70.9c-18.6-18.6-45.9-27.2-76.8-24.2C330,50.2,296,67.1,268.7,94.5s-44.3,61.3-47.7,95.6
	c-3.1,30.9,5.5,58.1,24.2,76.8s45.9,27.2,76.8,24.2c34.3-3.4,68.3-20.3,95.6-47.7c27.4-27.4,44.3-61.3,47.7-95.6
	C468.3,116.8,459.7,89.6,441.1,70.9z"/>
<g>
	<path class="st9" d="M148.9,49.5c-1.2-5.4-1.8-11-1.7-16.7c5.2-0.8,10.5-0.9,15.8-0.4c-0.1,2.3,0,4.6,0.2,6.8
		C158,41.9,153.2,45.3,148.9,49.5z"/>
	<path class="st9" d="M129.3,94.4c-0.1,7.5,1.1,15,3.7,22.1c-10.6-10-24.4-15.4-39.1-15c-0.5-5.2-0.4-10.5,0.4-15.8
		C106.7,85.6,118.7,88.6,129.3,94.4z"/>
	<path class="st9" d="M166.1,157.6c-5.2,0.8-10.5,0.9-15.8,0.4c0.1-6.3-0.8-12.4-2.6-18.2l0,0c5.4,5.4,11.6,9.7,18.2,12.7
		C166.1,154.2,166.1,155.9,166.1,157.6z"/>
</g>
</svg>
