<?xml version="1.0" encoding="utf-8"?>
<!-- Generator: Adobe Illustrator 21.0.2, SVG Export Plug-In . SVG Version: 6.00 Build 0)  -->
<svg version="1.1" id="Layer_1" xmlns="http://www.w3.org/2000/svg" xmlns:xlink="http://www.w3.org/1999/xlink" x="0px" y="0px"
	 viewBox="0 0 180.7 104.8" style="enable-background:new 0 0 180.7 104.8;" xml:space="preserve">
<style type="text/css">
	.st0{fill:#FFFFFF;}
</style>
<path class="st0" d="M21.9,99.9l0.5,1.5h-1.1L21.9,99.9z M21.2,98.2l-2.1,5.4h1.7l0.3-0.9h1.6l0.3,0.9h1.7l-2.1-5.4H21.2z"/>
<polygon class="st0" points="28,98.2 28,99.6 29.4,99.6 29.4,103.6 31,103.6 31,99.6 32.5,99.6 32.5,98.2 "/>
<g>
	<path class="st0" d="M44.5,101.9v1.6h-1.6v-5.4h2.6c1.3,0,1.9,0.9,1.9,1.9c0,1-0.7,1.8-1.9,1.8H44.5z M44.5,100.7h0.8
		c0.3,0,0.5-0.3,0.5-0.5c0-0.3-0.2-0.5-0.5-0.5h-0.8V100.7z"/>
	<polygon class="st0" points="61.1,103.6 61.1,98.2 65,98.2 65,99.6 62.7,99.6 62.7,100.3 64.7,100.3 64.7,101.5 62.7,101.5 
		62.7,102.2 65,102.2 65,103.6 	"/>
	<path class="st0" d="M70,103.6v-5.4h2.5c1.6,0,2.7,1.2,2.7,2.7c0,1.5-1.2,2.7-2.7,2.7H70z M71.6,99.6v2.6h0.7
		c0.8,0,1.4-0.5,1.4-1.3c0-0.8-0.5-1.3-1.4-1.3H71.6z"/>
	<path class="st0" d="M79,103.6l2.1-5.4h1.4l2.1,5.4h-1.7l-0.3-0.9H81l-0.3,0.9H79z M81.2,101.4h1.1l-0.5-1.5L81.2,101.4z"/>
	<polygon class="st0" points="92.6,98.2 92.6,99.6 91.1,99.6 91.1,103.6 89.5,103.6 89.5,99.6 88.1,99.6 88.1,98.2 	"/>
	<path class="st0" d="M96.8,100.9c0-1.5,1.1-2.8,2.9-2.8s2.9,1.3,2.9,2.8c0,1.5-1.1,2.8-2.9,2.8S96.8,102.4,96.8,100.9 M101,100.9
		c0-0.8-0.5-1.4-1.3-1.4c-0.8,0-1.3,0.6-1.3,1.4c0,0.8,0.5,1.4,1.3,1.4C100.5,102.3,101,101.7,101,100.9"/>
	<path class="st0" d="M123.7,101.8v1.8H122v-5.4h2.6c1.3,0,1.9,0.8,1.9,1.9c0,0.8-0.4,1.4-1.1,1.6l1.7,1.9h-1.9L123.7,101.8z
		 M123.7,100.7h0.8c0.3,0,0.5-0.3,0.5-0.5c0-0.3-0.2-0.5-0.5-0.5h-0.8V100.7z"/>
	<path class="st0" d="M108.7,101.9v1.8h-1.6v-5.4h2.6c1.3,0,1.9,0.8,1.9,1.9c0,0.8-0.4,1.4-1.1,1.6l1.7,1.9h-1.9L108.7,101.9z
		 M108.7,100.7h0.8c0.3,0,0.5-0.3,0.5-0.5c0-0.3-0.2-0.5-0.5-0.5h-0.8V100.7z"/>
	<path class="st0" d="M53.5,101.8v1.8h-1.6v-5.4h2.6c1.3,0,1.9,0.8,1.9,1.9c0,0.8-0.4,1.4-1.1,1.6l1.7,1.9h-1.9L53.5,101.8z
		 M53.5,100.7h0.8c0.3,0,0.5-0.3,0.5-0.5c0-0.3-0.2-0.5-0.5-0.5h-0.8V100.7z"/>
	<rect x="131.8" y="98.2" class="st0" width="1.6" height="5.4"/>
	<path class="st0" d="M138.4,103.6v-5.4h2.5c1.6,0,2.7,1.2,2.7,2.7c0,1.5-1.2,2.7-2.7,2.7H138.4z M140,99.6v2.6h0.7
		c0.8,0,1.4-0.5,1.4-1.3c0-0.8-0.5-1.3-1.4-1.3H140z"/>
	<path class="st0" d="M151.6,99.8c-0.3-0.3-0.7-0.3-1-0.3c-0.8,0-1.4,0.6-1.4,1.4c0,0.8,0.5,1.4,1.4,1.4c0.2,0,0.5,0,0.6-0.1v-0.6
		h-1.1v-1.2h2.7v2.4c-0.6,0.5-1.3,0.9-2.2,0.9c-1.8,0-3-1.3-3-2.8c0-1.5,1.2-2.8,3-2.8c0.8,0,1.4,0.3,1.9,0.7L151.6,99.8z"/>
	<polygon class="st0" points="157.7,103.6 157.7,98.2 161.6,98.2 161.6,99.6 159.3,99.6 159.3,100.3 161.3,100.3 161.3,101.5 
		159.3,101.5 159.3,102.2 161.6,102.2 161.6,103.6 	"/>
	<polygon class="st0" points="0,79.7 3,79.7 3,88.5 5.7,88.5 5.7,79.7 8.7,79.7 8.7,77.4 0,77.4 	"/>
	<polygon class="st0" points="19.8,82.1 15.9,82.1 15.9,77.4 13.3,77.4 13.3,88.5 15.9,88.5 15.9,84.3 19.8,84.3 19.8,88.5 
		22.5,88.5 22.5,77.4 19.8,77.4 	"/>
	<polygon class="st0" points="28.2,88.5 35.6,88.5 35.6,86.4 30.8,86.4 30.8,84.1 35,84.1 35,82 30.8,82 30.8,79.6 35.6,79.6 
		35.6,77.4 28.2,77.4 	"/>
	<path class="st0" d="M53.5,79.6c1.3,0,2.1,0.5,2.8,1l0.1,0.1l1.1-2l-0.1-0.1c-1-0.7-2.1-1.4-4-1.4c-4,0-6.1,2.9-6.1,5.7
		c0,2.8,2.1,5.7,6.1,5.7c1.8,0,3-0.7,4-1.4l0.1-0.1l-1.1-2l-0.1,0.1c-0.7,0.5-1.5,1-2.8,1c-2,0-3.4-1.3-3.4-3.3
		C50.1,81,51.5,79.6,53.5,79.6"/>
	<path class="st0" d="M67.2,77.3c-3.2,0-5.8,2.6-5.8,5.7c0,3.2,2.6,5.7,5.8,5.7c3.2,0,5.7-2.6,5.7-5.7
		C72.9,79.8,70.4,77.3,67.2,77.3 M67.2,86.2c-1.8,0-3.1-1.4-3.1-3.3c0-1.9,1.4-3.3,3.1-3.3c1.8,0,3.1,1.4,3.1,3.3
		C70.3,84.8,69,86.2,67.2,86.2"/>
	<polygon class="st0" points="87,77.4 84,84.5 81,77.4 78.4,77.4 77.4,88.5 80.1,88.5 80.6,82.3 83.1,88.4 84.9,88.4 87.4,82.3 
		87.9,88.5 90.6,88.5 89.6,77.4 	"/>
	<polygon class="st0" points="105,77.4 102,84.5 99.1,77.4 96.4,77.4 95.4,88.5 98.1,88.5 98.6,82.3 101.1,88.4 102.9,88.4 
		105.4,82.3 105.9,88.5 108.6,88.5 107.6,77.4 	"/>
	<path class="st0" d="M118.8,77.3c-3.2,0-5.8,2.6-5.8,5.7c0,3.2,2.6,5.7,5.8,5.7c3.2,0,5.7-2.6,5.7-5.7
		C124.6,79.8,122,77.3,118.8,77.3 M118.8,86.2c-1.8,0-3.1-1.4-3.1-3.3c0-1.9,1.4-3.3,3.1-3.3c1.8,0,3.1,1.4,3.1,3.3
		C122,84.8,120.6,86.2,118.8,86.2"/>
	<polygon class="st0" points="136.2,83.7 131.7,77.4 129.6,77.4 129.6,88.5 132.3,88.5 132.3,82.2 136.9,88.5 138.9,88.5 
		138.9,77.4 136.2,77.4 	"/>
	<path class="st0" d="M147.5,77.4l-4.3,11.1h2.7l0.7-2h4.1l0.8,2h2.8L150,77.4H147.5z M147.5,84.3l1.3-3.8l1.3,3.8H147.5z"/>
	<path class="st0" d="M162.6,84.5h2.7v1.3c-0.5,0.2-1.2,0.4-1.9,0.4c-1.9,0-3.2-1.3-3.2-3.2c0-2.4,1.8-3.3,3.4-3.3
		c1.1,0,2.1,0.6,2.6,1l0.1,0.1l1.3-2l-0.1-0.1c-0.9-0.7-2.1-1.4-4-1.4c-3.5,0-6,2.4-6,5.7c0,3.2,2.6,5.7,5.9,5.7
		c1.6,0,3.1-0.6,4.3-1.7l0,0v-4.6h-5.2V84.5z"/>
	<polygon class="st0" points="180.7,79.6 180.7,77.4 173.2,77.4 173.2,88.5 180.7,88.5 180.7,86.4 175.9,86.4 175.9,84.1 180,84.1 
		180,82 175.9,82 175.9,79.6 	"/>
	<path class="st0" d="M102.4,37.3c-0.3,0-5.8,0-9.4,3.6c-0.7,0.7-1.3,1.5-1.7,2.3V38c1.8-0.1,5.7-0.8,8.5-3.5
		c3.6-3.6,3.6-9.1,3.6-9.4l0-0.9l-0.9,0c-0.3,0-5.8,0-9.4,3.6c-0.7,0.7-1.3,1.5-1.7,2.3v-5.2c1.8-0.2,5.7-0.8,8.4-3.5
		c3.6-3.6,3.6-9.1,3.6-9.4l0-0.9l-0.9,0c-0.2,0-5.8,0-9.4,3.6c-3.6,3.6-3.6,9.1-3.6,9.4l0,0.6V30c-0.5-0.8-1-1.6-1.7-2.3
		c-3.5-3.6-9.1-3.6-9.4-3.6l-0.9,0l0,0.9c0,0.2,0,5.8,3.6,9.4c2.8,2.8,6.7,3.4,8.5,3.5v5.3c-0.5-0.8-1-1.6-1.7-2.3
		c-3.5-3.6-9.1-3.6-9.4-3.6l-0.9,0l0,1c0,0.2,0,5.8,3.6,9.4c2.8,2.8,6.7,3.4,8.5,3.5v12.4h1.9V51.2c1.8-0.1,5.7-0.8,8.5-3.5
		c3.6-3.6,3.6-9.1,3.6-9.4l0-1L102.4,37.3z M98.4,33.1c-2.2,2.2-5.4,2.8-7,2.9c0.1-0.6,0.2-1.6,0.5-2.5c4.5-0.5,7.4-2.9,9-4.9
		C100.5,30.1,99.7,31.8,98.4,33.1 M94.4,29c1.7-1.7,4.1-2.5,5.8-2.8c-1,1.7-3.3,4.4-7.5,5.2C93.1,30.6,93.6,29.7,94.4,29 M94.3,15.8
		c2.2-2.2,5.4-2.8,7-2.9c-0.2,1.6-0.8,4.8-2.9,7c-2.2,2.2-5.4,2.8-7,2.9C91.5,21.2,92.1,18,94.3,15.8 M82.2,33.1
		c-2.2-2.2-2.8-5.4-2.9-7c1.6,0.2,4.8,0.8,7,2.9c2.2,2.2,2.8,5.4,2.9,7C87.6,35.8,84.4,35.2,82.2,33.1 M88,44.7
		c-4.3-0.7-6.6-3.5-7.6-5.2c1.7,0.3,4.2,1,5.9,2.8C87,43,87.6,43.8,88,44.7 M82.2,46.3c-1.3-1.3-2-2.9-2.4-4.3
		c1.6,2,4.5,4.3,8.9,4.8c0.3,1,0.4,1.9,0.5,2.5C87.6,49.1,84.4,48.5,82.2,46.3 M98.4,46.3c-2.2,2.2-5.4,2.8-7,2.9
		c0.2-1.6,0.8-4.8,2.9-7c2.2-2.2,5.4-2.8,7-2.9C101.2,40.9,100.6,44.2,98.4,46.3"/>
	<path class="st0" d="M90.3,14.3l0.7-0.7c0.1-0.1,2.9-2.9,2.9-6.5c0-3.6-2.8-6.4-2.9-6.5L90.3,0l-0.7,0.7c-0.1,0.1-2.9,2.9-2.9,6.5
		c0,3.6,2.8,6.4,2.9,6.5L90.3,14.3z M90.3,2.8C91,3.8,92,5.4,92,7.2c0,1.8-1,3.4-1.7,4.3c-0.7-0.9-1.7-2.5-1.7-4.3
		C88.7,5.4,89.6,3.8,90.3,2.8"/>
</g>
</svg>
