<?xml version="1.0" encoding="utf-8"?>
<!-- Generator: Adobe Illustrator 21.0.2, SVG Export Plug-In . SVG Version: 6.00 Build 0)  -->
<svg version="1.1" id="Layer_1" xmlns="http://www.w3.org/2000/svg" xmlns:xlink="http://www.w3.org/1999/xlink" x="0px" y="0px"
	 viewBox="0 0 180.6 89.5" style="enable-background:new 0 0 180.6 89.5;" xml:space="preserve">
<style type="text/css">
	.st0{fill:#474747;}
</style>
<polygon class="st0" points="0,79.8 3,79.8 3,88.6 5.6,88.6 5.6,79.8 8.7,79.8 8.7,77.5 0,77.5 "/>
<polygon class="st0" points="19.8,82.2 15.9,82.2 15.9,77.5 13.3,77.5 13.3,88.6 15.9,88.6 15.9,84.4 19.8,84.4 19.8,88.6 
	22.4,88.6 22.4,77.5 19.8,77.5 "/>
<polygon class="st0" points="28.2,88.6 35.6,88.6 35.6,86.4 30.8,86.4 30.8,84.2 35,84.2 35,82.1 30.8,82.1 30.8,79.7 35.6,79.7 
	35.6,77.5 28.2,77.5 "/>
<path class="st0" d="M53.5,79.7c1.3,0,2.1,0.5,2.8,1l0.1,0.1l1.1-2l-0.1-0.1c-1-0.7-2.1-1.4-4-1.4c-4,0-6.1,2.9-6.1,5.7
	c0,2.8,2.1,5.7,6.1,5.7c1.8,0,3-0.7,4-1.4l0.1-0.1l-1.1-2l-0.1,0.2c-0.7,0.5-1.5,1-2.8,1c-2,0-3.4-1.3-3.4-3.3
	C50.1,81.1,51.5,79.7,53.5,79.7"/>
<path class="st0" d="M67.2,77.3c-3.2,0-5.8,2.6-5.8,5.7c0,3.2,2.6,5.7,5.8,5.7c3.2,0,5.7-2.6,5.7-5.7S70.3,77.3,67.2,77.3
	 M67.2,86.3c-1.8,0-3.1-1.4-3.1-3.3s1.4-3.3,3.1-3.3c1.8,0,3.1,1.4,3.1,3.3S68.9,86.3,67.2,86.3"/>
<polygon class="st0" points="86.9,77.5 84,84.6 81,77.5 78.4,77.5 77.4,88.6 80,88.6 80.6,82.4 83.1,88.5 84.8,88.5 87.4,82.4 
	87.9,88.6 90.6,88.6 89.5,77.5 "/>
<polygon class="st0" points="104.9,77.5 102,84.6 99,77.5 96.4,77.5 95.4,88.6 98,88.6 98.6,82.4 101.1,88.5 102.8,88.5 105.4,82.4 
	105.9,88.6 108.6,88.6 107.5,77.5 "/>
<path class="st0" d="M118.8,77.3c-3.2,0-5.8,2.6-5.8,5.7c0,3.2,2.6,5.7,5.8,5.7c3.2,0,5.7-2.6,5.7-5.7
	C124.6,79.9,122,77.3,118.8,77.3 M118.8,86.3c-1.8,0-3.1-1.4-3.1-3.3s1.4-3.3,3.1-3.3c1.8,0,3.1,1.4,3.1,3.3S120.6,86.3,118.8,86.3"
	/>
<polygon class="st0" points="136.2,83.8 131.6,77.5 129.6,77.5 129.6,88.6 132.2,88.6 132.2,82.3 136.8,88.6 138.9,88.6 138.9,77.5 
	136.2,77.5 "/>
<path class="st0" d="M147.5,77.5l-4.3,11.1h2.7l0.7-2h4.1l0.8,2h2.8L150,77.5H147.5z M147.4,84.4l1.3-3.8l1.3,3.8H147.4z"/>
<path class="st0" d="M162.6,84.6h2.7v1.3c-0.5,0.2-1.2,0.4-1.9,0.4c-1.9,0-3.2-1.3-3.2-3.2c0-2.4,1.8-3.3,3.4-3.3
	c1.1,0,2.1,0.6,2.6,1l0.1,0.1l1.3-2l-0.1-0.1c-0.9-0.7-2.1-1.4-4-1.4c-3.5,0-6,2.4-6,5.7c0,3.2,2.6,5.7,5.9,5.7
	c1.6,0,3.1-0.6,4.3-1.7l0,0v-4.7h-5.2L162.6,84.6L162.6,84.6z"/>
<polygon class="st0" points="180.6,79.7 180.6,77.5 173.2,77.5 173.2,88.6 180.6,88.6 180.6,86.4 175.8,86.4 175.8,84.2 180,84.2 
	180,82.1 175.8,82.1 175.8,79.7 "/>
<path class="st0" d="M102.4,37.4c-0.3,0-5.8,0-9.4,3.6c-0.7,0.7-1.3,1.5-1.7,2.3v-5.2c1.8-0.1,5.7-0.8,8.5-3.5
	c3.6-3.6,3.6-9.1,3.6-9.4v-0.9h-0.9c-0.3,0-5.8,0-9.4,3.6c-0.7,0.7-1.3,1.5-1.7,2.3V25c1.8-0.2,5.7-0.8,8.4-3.5
	c3.6-3.6,3.6-9.1,3.6-9.4v-0.9h-0.9c-0.2,0-5.8,0-9.4,3.6s-3.6,9.1-3.6,9.4v0.6v5.5c-0.5-0.8-1-1.6-1.7-2.3
	c-3.5-3.6-9.1-3.6-9.4-3.6h-0.9v0.9c0,0.2,0,5.8,3.6,9.4c2.8,2.8,6.7,3.4,8.5,3.5v5.3c-0.5-0.8-1-1.6-1.7-2.3
	c-3.5-3.6-9.1-3.6-9.4-3.6h-0.9v1c0,0.2,0,5.8,3.6,9.4c2.8,2.8,6.7,3.4,8.5,3.5v12.4h1.9V51.5c1.8-0.1,5.7-0.8,8.5-3.5
	c3.6-3.6,3.6-9.1,3.6-9.4v-1L102.4,37.4z M98.4,33.2c-2.2,2.2-5.4,2.8-7,2.9c0.1-0.6,0.2-1.6,0.5-2.5c4.5-0.5,7.4-2.9,9-4.9
	C100.4,30.1,99.7,31.8,98.4,33.2 M94.3,29.1c1.7-1.7,4.1-2.5,5.8-2.8c-1,1.7-3.3,4.4-7.5,5.2C93.1,30.7,93.6,29.8,94.3,29.1
	 M94.3,15.9c2.2-2.2,5.4-2.8,7-2.9c-0.2,1.6-0.8,4.8-2.9,7c-2.2,2.2-5.4,2.8-7,2.9C91.5,21.3,92.1,18.1,94.3,15.9 M82.2,33.2
	c-2.2-2.2-2.8-5.4-2.9-7c1.6,0.2,4.8,0.8,7,2.9c2.2,2.2,2.8,5.4,2.9,7C87.6,35.9,84.4,35.3,82.2,33.2 M88,44.8
	c-4.3-0.7-6.6-3.5-7.6-5.2c1.7,0.3,4.2,1,5.9,2.8C87,43.1,87.6,43.9,88,44.8 M82.2,46.4c-1.3-1.3-2-2.9-2.4-4.3
	c1.6,2,4.5,4.3,8.9,4.8c0.3,1,0.4,1.9,0.5,2.5C87.6,49.2,84.4,48.5,82.2,46.4 M98.4,46.4c-2.2,2.2-5.4,2.8-7,2.9
	c0.2-1.6,0.8-4.8,2.9-7c2.2-2.2,5.4-2.8,7-2.9C101.2,41,100.5,44.2,98.4,46.4"/>
<path class="st0" d="M90.3,14.4l0.7-0.7c0.1-0.1,2.9-2.9,2.9-6.5S91.1,0.8,91,0.7L90.3,0l-0.7,0.7c-0.1,0.1-2.9,2.9-2.9,6.5
	s2.8,6.4,2.9,6.5L90.3,14.4z M90.3,2.9C91,3.8,92,5.4,92,7.2s-1,3.4-1.7,4.3c-0.7-0.9-1.7-2.5-1.7-4.3C88.6,5.5,89.6,3.8,90.3,2.9"
	/>
</svg>
