<?xml version="1.0" encoding="utf-8"?>
<!-- Generator: Adobe Illustrator 21.0.2, SVG Export Plug-In . SVG Version: 6.00 Build 0)  -->
<svg version="1.1" xmlns="http://www.w3.org/2000/svg" xmlns:xlink="http://www.w3.org/1999/xlink" x="0px" y="0px"
	 viewBox="0 0 467.1 264.6" style="enable-background:new 0 0 467.1 264.6;" xml:space="preserve">
<style type="text/css">
	.st0{fill:#FFD100;}
	.st1{fill:none;stroke:#FFD100;stroke-width:0.601;stroke-miterlimit:10;}
	.st2{fill:#E7EFBB;}
	.st3{fill:#E7D2AD;}
	.st4{fill:none;stroke:#F6F9E2;stroke-width:0.247;}
	.st5{fill:#C8DF8E;}
	.st6{fill:none;}
	.st7{fill:#677718;}
	.st8{fill:none;stroke:#C7C8CA;stroke-width:0.28;stroke-linecap:round;stroke-linejoin:round;}
	.st9{fill:#BAD768;}
	.st10{fill:#AFCB62;}
	.st11{fill:#EEEDEC;}
	.st12{fill:#FFFFFF;}
	.st13{fill:#D8D9DA;}
	.st14{fill:#D09FC9;}
	.st15{fill:#C7C8CA;}
	.st16{fill:#C7C8C9;}
	.st17{opacity:0.54;}
	.st18{fill:#F6F019;}
</style>
<g id="Layer_2">
	
		<rect x="179.2" y="98" transform="matrix(0.3819 -0.9242 0.9242 0.3819 -38.0445 265.6165)" class="st0" width="0.6" height="126.5"/>
	
		<rect x="175.2" y="102.6" transform="matrix(0.3814 -0.9244 0.9244 0.3814 -44.1058 264.3872)" class="st0" width="0.6" height="125.1"/>
	
		<rect x="178.9" y="100.7" transform="matrix(0.3821 -0.9241 0.9241 0.3821 -40.6946 266.835)" class="st0" width="0.6" height="126.4"/>
	
		<rect x="169.7" y="107.4" transform="matrix(0.3816 -0.9243 0.9243 0.3816 -48.0762 259.6426)" class="st0" width="0.6" height="116.6"/>
	
		<rect x="165.4" y="111.3" transform="matrix(0.3819 -0.9242 0.9242 0.3819 -51.7408 256.2324)" class="st0" width="0.6" height="111"/>
	
		<rect x="159" y="118.5" transform="matrix(0.382 -0.9242 0.9242 0.382 -58.335 252.0669)" class="st0" width="0.6" height="102.4"/>
	
		<rect x="155.2" y="121.2" transform="matrix(0.3818 -0.9243 0.9243 0.3818 -61.9124 249.4417)" class="st0" width="0.6" height="99.5"/>
	<polygon class="st0" points="193.3,189.5 107.8,154.3 108,153.7 193.5,188.9 	"/>
	
		<rect x="161.6" y="114.5" transform="matrix(0.3815 -0.9244 0.9244 0.3815 -55.2661 253.7033)" class="st0" width="0.6" height="107.2"/>
	
		<rect x="180.2" y="96" transform="matrix(0.3804 -0.9248 0.9248 0.3804 -35.0277 265.316)" class="st0" width="0.6" height="125.6"/>
	
		<rect x="194" y="113.4" transform="matrix(0.3817 -0.9243 0.9243 0.3817 -29.5046 279.6957)" class="st0" width="0.6" height="96.9"/>
	
		<rect x="198.1" y="116.7" transform="matrix(0.3819 -0.9242 0.9242 0.3819 -26.1653 282.8769)" class="st0" width="0.6" height="88.5"/>
	
		<rect x="204.9" y="116.5" transform="matrix(0.3816 -0.9243 0.9243 0.3816 -22.0593 289.3278)" class="st0" width="0.6" height="89.4"/>
	<path class="st1" d="M129.6,130"/>
	
		<rect x="212.6" y="116.4" transform="matrix(0.3821 -0.9241 0.9241 0.3821 -17.6001 296.4778)" class="st0" width="0.6" height="90"/>
	
		<rect x="224.6" y="129.5" transform="matrix(0.382 -0.9242 0.9242 0.382 -12.0823 308.9319)" class="st0" width="0.6" height="68.1"/>
	
		<rect x="226.6" y="127.5" transform="matrix(0.382 -0.9242 0.9242 0.382 -8.998 309.5442)" class="st0" width="0.6" height="68.1"/>
	<polygon class="st0" points="262.3,173.9 197.5,147.2 197.7,146.6 262.5,173.3 	"/>
	<rect x="231.1" y="123.2" transform="matrix(0.3824 -0.924 0.924 0.3824 -2.7953 311.2185)" class="st0" width="0.6" height="69"/>
	
		<rect x="233.7" y="120.7" transform="matrix(0.3811 -0.9245 0.9245 0.3811 0.5337 312.9964)" class="st0" width="0.6" height="70.8"/>
	<polygon class="st0" points="268.3,168 203,141.1 203.2,140.5 268.5,167.4 	"/>
	
		<rect x="240.4" y="113.1" transform="matrix(0.3815 -0.9244 0.9244 0.3815 12.1972 313.9293)" class="st0" width="0.6" height="69.5"/>
	
		<rect x="240.3" y="114.3" transform="matrix(0.3812 -0.9245 0.9245 0.3812 9.2491 315.8187)" class="st0" width="0.6" height="73.4"/>
	
		<rect x="238.2" y="116.6" transform="matrix(0.3819 -0.9242 0.9242 0.3819 6.2981 314.817)" class="st0" width="0.6" height="72.3"/>
	
		<rect x="245" y="114.4" transform="matrix(0.3811 -0.9245 0.9245 0.3811 15.8567 317.788)" class="st0" width="0.6" height="65.3"/>
	
		<rect x="247.6" y="113.3" transform="matrix(0.3818 -0.9242 0.9242 0.3818 18.874 318.9182)" class="st0" width="0.6" height="64.2"/>
	
		<rect x="255.8" y="114.5" transform="matrix(0.3826 -0.9239 0.9239 0.3826 23.2063 326.8023)" class="st0" width="0.6" height="63"/>
	
		<rect x="252" y="111.4" transform="matrix(0.3816 -0.9243 0.9243 0.3816 24.9586 320.9051)" class="st0" width="0.6" height="60.8"/>
	
		<rect x="252.2" y="107.6" transform="matrix(0.3826 -0.9239 0.9239 0.3826 27.4276 319.1428)" class="st0" width="0.6" height="63"/>
	
		<rect x="141.7" y="132" transform="matrix(0.3815 -0.9244 0.9244 0.3815 -69.7291 236.6909)" class="st0" width="0.6" height="76.8"/>
	<polygon class="st0" points="175.8,187.5 104.9,158.3 105.1,157.7 176,186.9 	"/>
	<polygon class="st0" points="172.8,189 103.2,160.3 103.4,159.7 173,188.4 	"/>
	
		<rect x="135.8" y="139" transform="matrix(0.3816 -0.9243 0.9243 0.3816 -78.7002 234.7712)" class="st0" width="0.6" height="74.4"/>
	
		<rect x="133.7" y="141.4" transform="matrix(0.3823 -0.9241 0.9241 0.3823 -81.5205 233.6559)" class="st0" width="0.6" height="72.7"/>
	
		<rect x="130.8" y="144.4" transform="matrix(0.3824 -0.924 0.924 0.3824 -84.936 232.0264)" class="st0" width="0.6" height="70.3"/>
	<polygon class="st0" points="160.5,194.9 117.1,177 117.3,176.4 160.7,194.3 	"/>
	
		<rect x="130.4" y="165.9" transform="matrix(0.3804 -0.9248 0.9248 0.3804 -92.7467 237.2639)" class="st0" width="0.6" height="43.9"/>
	
		<rect x="134.6" y="164.1" transform="matrix(0.3804 -0.9248 0.9248 0.3804 -89.3282 240.6638)" class="st0" width="0.6" height="45.7"/>
	<path class="st1" d="M151.5,196.4"/>
	
		<rect x="125.6" y="168.9" transform="matrix(0.3837 -0.9235 0.9235 0.3837 -96.3571 232.4191)" class="st0" width="0.6" height="39.1"/>
	
		<rect x="111.8" y="167.3" transform="matrix(0.3833 -0.9236 0.9236 0.3833 -102.1218 217.9622)" class="st0" width="0.6" height="36.3"/>
	
		<rect x="112.5" y="163.1" transform="matrix(0.3821 -0.9241 0.9241 0.3821 -104.6832 220.8349)" class="st0" width="0.6" height="51.3"/>
	<polygon class="st0" points="138.2,202.4 87.2,181.4 87.4,180.8 138.4,201.8 	"/>
	
		<rect x="112" y="165.2" transform="matrix(0.3818 -0.9242 0.9242 0.3818 -109.9873 223.8623)" class="st0" width="0.6" height="57.9"/>
	
		<rect x="110.4" y="167.4" transform="matrix(0.3825 -0.924 0.924 0.3825 -112.8152 223.2935)" class="st0" width="0.6" height="57.3"/>
	
		<rect x="107.9" y="170.2" transform="matrix(0.3819 -0.9242 0.9242 0.3819 -116.0834 222.4248)" class="st0" width="0.6" height="55.5"/>
	
		<rect x="105" y="173.1" transform="matrix(0.3822 -0.9241 0.9241 0.3822 -119.1608 220.4659)" class="st0" width="0.6" height="52.6"/>
	
		<rect x="101.9" y="176.1" transform="matrix(0.3832 -0.9237 0.9237 0.3832 -122.5275 218.3186)" class="st0" width="0.6" height="49.6"/>
	<path class="st1" d="M121.4,211.6"/>
	
		<rect x="96" y="181.9" transform="matrix(0.3802 -0.9249 0.9249 0.3802 -128.5001 215.2497)" class="st0" width="0.6" height="43.1"/>
	
		<rect x="91.9" y="185.8" transform="matrix(0.383 -0.9238 0.9238 0.383 -132.5423 211.7735)" class="st0" width="0.6" height="38.6"/>
	<polygon class="st0" points="103.8,213 72.5,200.1 72.7,199.5 104,212.4 	"/>
	
		<rect x="84.4" y="193.6" transform="matrix(0.3818 -0.9242 0.9242 0.3818 -139.5886 206.5985)" class="st0" width="0.6" height="28"/>
	
		<rect x="81.3" y="197.4" transform="matrix(0.384 -0.9233 0.9233 0.384 -142.665 204.0527)" class="st0" width="0.6" height="23.2"/>
	
		<rect x="73.4" y="204.6" transform="matrix(0.3801 -0.9249 0.9249 0.3801 -147.1332 197.4588)" class="st0" width="0.6" height="7.9"/>
	
		<rect x="99.4" y="178.7" transform="matrix(0.3801 -0.9249 0.9249 0.3801 -125.4055 217.6825)" class="st0" width="0.6" height="47.4"/>
</g>
<g id="Layer_1">
	<g id="Layer_1_1_">
	</g>
	<g id="The_Rest_2_">
		<path class="st2" d="M152.3,250.8c-1.1,0.8-2.5,1.8-3.9,2.3c-1.6,0.5-3.3,0.5-4.9,0.9c-1.3,0.3-2.7,1.2-3.7,2.1
			c-0.8,0.7-1.7,1.5-2.6,2c-0.9,0.5-2,0.6-3,0.7c-1.4-0.2-2.9-0.6-4.3-1.2c-1.5-0.7-2.6-1.8-3.8-3c-2.3-2.4-0.4-6.5,1.6-8.4
			c1.2-1.2,2.9-1.9,4.4-2.7c1.3-0.7,2.6-1.5,4.1-1.4c2.3,0.1,5.3-0.7,7.5-1.6c1.7-0.7,3.1-1.8,4.7-2.5c1.8-0.8,3.5-2.2,5.5-2.7
			c2.4-0.6,4.7,0.7,6.5-1.6c0.6-0.8,0.8-1.9,1.7-2.6c1-0.6,2.4-0.4,3.4-0.1c0.9,0.3,1.7,0.1,2.6-0.2c1.2-0.5,1.8-0.4,3.1-0.3
			c2,0.1,2.9-1.2,4.1-2.5c0.5-0.6,1-0.8,1.6-1.2c0.8-0.6,1.3-0.7,2.2-0.8c0.8-0.1,1.5-0.5,2.3-0.6c0.7-0.1,1.2,0.2,1.8,0.5
			c0.8,0.3,1.6,0.7,2.4,1c0.9,0.3,2.2,0.3,3-0.2c0.8-0.4,1.2-1.7,2-2c1.1-0.4,1.8,0.8,2.7,1.1c1.4,0.5,3.2-1.3,4.8-1.1
			c0.8,0.1,1.4,0.7,2.2,0.9c2.1,0.6,3.7-0.7,5.8-0.5c1.2,0.1,1.7,0.9,2.5,1.6c1.7,1.5,3.4,0.3,4.6-1.1c1.4-1.6,2.1-3.7,3.9-4.8
			c1.3-0.9,3-2,4.7-1.3c1.3,0.6,2.6,2,3.4,3.1c0.7,1.1,0.7,2.4,2,3.1c1,0.6,2.1,0.9,3.1,1.3c0.7,0.3,1.5,0.5,2.1,1.1
			c1.6,1.7,0.7,4.5,1.1,6.7c0.5,2.4,1,5.3-1.8,6.5c-1.8,0.8-3-0.5-4.6-0.7c-1.3-0.2-2.2,0.8-3.4,0.7c-1.5-0.1-2.2-1.6-3.8-1.3
			c-1.3,0.2-2.3,1.2-3.8,0.9c-3.1-0.6-2.7-2.8-3.2-5.1c-0.7-3-3.2-0.7-5.2-1.9c-0.6-0.3-1-1-1.6-1.3c-1.4-0.6-3.2,1-4.3,1.5
			c-1.7,0.8-3.2,1.2-4.9,1.8c-2,0.6-4.1,0.7-6.1,1.1c-2,0.3-3.9,0.9-5.8,1.6c-2.4,0.9-4.1,3.1-6.7,3.7c-1.1,0.2-2.1-0.1-3.1,0.2
			c-1.3,0.3-2.2,1.1-3.2,1.9c-1.2,1-2.9,1.8-4.4,2.5c-1.6,0.7-3.4,0.8-5.1,0.8c-1.8-0.1-3.5-0.6-5.2,0
			C155.2,248.3,153.8,249.7,152.3,250.8"/>
		<path class="st2" d="M267.3,293.6c-2.1,0.2-3.9-0.7-5.9-0.8s-4.1,0-5.9,0.9c-2.4,1.2-4.5,2.6-6,4.9c-0.8,1.3-0.2,3.1-1.3,4.4"/>
		<path class="st2" d="M229.9,290.1c0.5-1.7,0.9-3.3,2-4.8c2.1-3,6.5-3.6,9.9-4.2c1.8-0.3,3.6-0.8,5.5-1.1c1.6-0.2,3,0.1,4.5,0.3
			c1.9,0.3,4.2,0.6,6.1,0.2c2.8-0.6,5.3-2.1,7.9-3.3c1.2-0.6,2.3-1,3.5-1.6c0.9-0.4,2.2-0.7,2.9,0.2c0.6,0.7,0.3,1.4,1.3,1.9
			c0.8,0.4,1.5,0.9,2.3,1.4"/>
		<path class="st2" d="M187.3,337.7c-1.9-0.1-3.5-0.7-5.3-1.2c-1.1-0.3-2.3-1.1-3.1-2c-1.7-2-1.8-3.6-0.9-6c0.3-0.9,0.9-1.9,1.7-2.4
			c0.9-0.6,2.1-0.7,3-1.3c0.7-0.5,1.3-1.2,1.7-1.9c0.4-0.8,0.4-1.9,1.5-2.2c0.9-0.2,2.5,1.1,3.2,0.2c0.4-0.7-0.4-1.5-0.4-2.2
			c0-0.9,0.4-1.8,1.1-2.5c0.8-0.7,1.5-0.6,2.4,0c0.8,0.6,1.5,0.4,1.6-0.7c0.1-1.2-0.4-2.3,0.4-3.4c0.8-1,2.2-1.4,2.8-2.6
			s0.9-1.8,2-2.5c1-0.7,2.2-1.4,3.2-2.2c2.4-1.8,4.5-4,6.9-5.7c1.1-0.8,2.3-1,3.5-1.4s2.1-0.2,3.4-0.1c1.5,0.2,3.1,0.4,4.6,0.5"/>
		<path class="st2" d="M204.7,322.6"/>
		<path class="st2" d="M378.2,251.5c0.2,0,0.4,0.1,0.6,0.1c1.5,0.3,2.5,0.4,3.7-0.4c0.9-0.6,1.7-1.3,2.6-2c0.8-0.7,1.2-1.5,1.8-2.4
			c1.8-2.6,5.3-2.3,7.9-1.2c1.5,0.6,2.9,1.6,4.4,2.5c1.7,1,3.8,1.5,5.7,1.8c1.2,0.2,2.6,0.3,3.8,0.1c1.6-0.2,3.2-1,4.9-0.6
			c2,0.4,2.7,2.2,2.5,4c-0.1,1.8-1.2,3-2.6,4c-1.6,1.1-3.6,0.7-5.4,0.9s-3.4,0.1-4.9,0.9c-1.1,0.6-2.5,1.2-3.8,0.7
			c-1-0.4-2.1-1.1-3.1-1.7c-2.1-1.1-4.1-1.6-5.8,0.4c-0.5,0.5-0.9,1.1-1.2,1.7c-0.7,1.3-1.2,2.4-2.6,3.1c-1.6,0.8-3.1,0.1-4.8,0.1
			c-2.6,0-3.9,2.1-5.5,3.7c-0.8,0.9-2.2,1.4-3.3,2c-1.4,0.8-2.7,1.6-4.1,2.3l0.1-0.1c-1.4,0.6-3,1.2-4.5,1.2c-1.3,0-3.2-0.3-4.2-1.1
			c-1.2-0.8-2-2.3-2.7-3.5c-0.5-0.8-0.9-1.8-1.3-2.6c-0.8-1.5-1.8-2.5-2.8-3.8c-1-1.1-1.7-2.8-1.3-4.3c0.8-2.8,3.9-2.7,6.2-3.5
			c0.6-0.2,1.5-0.3,2-0.6c0.6-0.3,0.8-0.9,1.5-1c0.4-0.1,0.9,0,1.3,0c1,0,1.7,0.7,2.7,0.7c0.7,0,0.8-0.1,1.5,0.2
			c0.5,0.2,1,0.5,1.5,0.5c2,0.2,3-1.4,4.7-2C375.2,251.2,376.7,251.3,378.2,251.5"/>
		<path class="st2" d="M429.5,287.4c-1.5-0.4-2.2-1.8-3.6-2.4c-1.1-0.4-2.5,0-3.5,0.7c-0.8,0.6-1.4,1.5-2.4,1.8
			c-1.4,0.4-1.9-0.5-2.4-1.6c-1.3-3.1-5.8,3-6.9,3.8c-0.4,0.4-1.1,1-1.7,0.8c-0.7-0.3-0.5-1-0.6-1.6c-0.3-1-1.1-1.9-2.1-1.9
			c-1.4-0.1-2.2,2.7-3.4,1.1c-0.9-1.2-0.4-2.9-0.9-4.3c-0.3-0.8-0.6-1.8-0.4-2.7c0.4-1.3,1.4-0.9,2.4-0.5c0.6,0.2,1.2,0.7,1.7,0.8
			c0.6,0.1,1.4-0.5,1.9-0.8c1.2-0.9,1.8-2.2,2.9-3.1c0.9-0.7,2.2-1,3.3-1.1c2.1-0.1,4.1,0.8,6.2-0.3c1.5-0.8,2.1-2.1,3-3.4
			c1.1-1.6,2.8-1.8,4.6-1.5c0.9,0.1,1.8,0.4,2.7,0.8c0.4,0.2,0.8,0.5,1.3,0.7c1.1,0.5,1.8,1.1,3,1.1"/>
		<path class="st2" d="M434.5,273.8c0.5,0,0.9-0.1,1.3-0.3c1.8-0.9,3.1-3,5.4-1.9"/>
		<path class="st2" d="M400.7,218.9c1.1,0.2,2.3,0.1,3.5-0.5c1.7-0.9,1.1-3.6,3-4.5c1.4-0.7,3.2-0.4,4.7-0.2
			c1.4,0.2,2.7,0.6,4.1,0.5c0.5,0,1.2-0.1,1.7-0.3c0.4-0.1,0.7-0.4,1.1-0.4c0.7,0,1.6,1,1.8,1.6c0.5,1.3,0.2,2.7,1.6,3.4
			s2.9,0.3,4.2-0.5c1.3-0.8,3-2,4.4-0.9c0.8,0.6,1.2,1.7,1.7,2.6c0.9,1.7,2.6,4.4,4.9,4c1-0.2,1.6-1,2.4-1.5
			c1.4-0.8,2.6,0.1,3.3,1.3c0.7,1.1,1.8,2.1,3.2,1.9c1.2-0.2,2-1.7,2.7-2.5c1.3-1.4,1.8-0.7,3.3,0c1.2,0.6,1.7-0.9,2.6-1
			c1-0.1,1.3,1.4,1.9,1.9c1.5,1.4,6.5,3.1,4.7,6.2c-0.6,1-1.7,2-2.8,2.5c-0.5,0.3-1.1,0.4-1.7,0.4s-1.3-0.3-1.9-0.2
			c-0.7,0.1-1.5,0.5-1.9,1c-0.8,0.9-0.9,1.8-1.1,2.9c-0.2,0.8-0.8,1.5-1.7,1.2c-1.2-0.4-1.1-1.6-2.1-2.2c-0.9-0.5-2.1-0.4-2-1.8
			c0.1-0.9,0.7-1.1,0-2c-1.1-1.3-2.5-0.8-3.9-0.4c-1.9,0.6-3.2,0.4-4.9-0.9c-1.4-1.1-2.5-1.5-4.3-0.7c-0.8,0.4-1,0.9-1.5,1.5
			s-1.2,0.8-1.8,1.2c-0.8,0.5-0.8,1.4-1.2,2.2c-0.9,1.7-3.6,1.5-5.2,0.9c-0.8-0.3-1.8-0.8-2.4-1.5c-0.3-0.4-0.3-0.9-0.7-1.2
			c-0.4-0.4-1-0.2-1.5-0.3c-1.1-0.1-2.6,0-3.7,0.1c-1.7,0.3-2.4,1.7-3.7,2.5c-1.1,0.6-2.1,0.9-3.3,1.1c-1.3,0.2-2.7-0.1-3.9-0.7
			c-0.6-0.3-1-0.8-1.6-1.1c-1.1-0.6-2.8-1.7-4.1-1.6c-1.6,0.1-3.2,1-4.8,1.2c-1.7,0.3-2.7,1.1-4.4,0.5c-1.2-0.4-2.2-0.9-3.4-0.2
			c-1.2,0.6-1.9,1.8-3.1,2.5c-1.2,0.8-2.9,1.1-4.1,0.1c-1-0.9-1.8-2.3-3.2-2.6c-1.3-0.3-2.4,0.9-3.6,1.2c-1.5,0.4-3.3-0.1-4.5-1
			c-1.3-0.9-1.2-2-1.4-3.5c-0.1-0.8-0.2-1.1,0.3-1.8c0.5-0.8,1.2-1.4,1.2-2.4c0-0.6-0.1-1-0.2-1.6c-0.4-2.1,1.3-2.9,3.1-2.9
			c1.7-0.1,3.6-0.4,5.2,0.4c1.3,0.6,2.3,1.7,3.8,1.6c1.3-0.1,2.7-0.4,3.9-1.1c1.7-1,2.8-2.4,5-2.1c0.7,0.1,1.4,0.5,2,0
			c0.5-0.4,0.5-1.2,0.9-1.7c0.9-1.1,3.3-1.2,4.5-1.3C397.7,218.2,399.2,218.7,400.7,218.9"/>
		<path class="st2" d="M296.5,263.7c-1.3,0.8-2.5,1.9-3.9,2.8c-1.4,1-3.1,1.2-4.8,1.6c-1.2,0.3-2.5,0.4-3.7,0.1
			c-4.4-1.1-3.5-7.2-1.9-10.2c0.8-1.5,2-2.9,2.6-4.5c1.2-2.9,1.9-6.3,4.3-8.4c2-1.7,3.6-4.6,6.4-3c2.3,1.4,3.8,3.9,6.6,4.2
			c2.6,0.3,5.3,0.9,7,3.1c0.9,1.2,1.4,3,1.9,4.4c1.2,3.6-1.6,8.1-5.1,9.1c-1.6,0.5-3.5-0.3-5.2-0.4
			C299,262.4,297.7,262.9,296.5,263.7"/>
		<path class="st3" d="M418,289.5l-0.1,0.1c-0.8,0.7-2.4,1.4-3.3,0.4c-1-1.2-0.1-2.6,0.6-3.6c0.4-0.4,1-1.1,1.5-0.4
			c0.2,0.3,0,0.7,0.1,1s0.5,0.4,0.7,0.6C418.4,288.2,418.6,288.8,418,289.5"/>
		<path class="st4" d="M418,289.5l-0.1,0.1c-0.8,0.7-2.4,1.4-3.3,0.4c-1-1.2-0.1-2.6,0.6-3.6c0.4-0.4,1-1.1,1.5-0.4
			c0.2,0.3,0,0.7,0.1,1s0.5,0.4,0.7,0.6C418.4,288.2,418.6,288.8,418,289.5z"/>
		<path class="st3" d="M376.7,272.3c-1.6-0.5-1.3-1.8-2.1-2.9c-0.6-0.9-2.2-1.5-0.3-2.2c0.8-0.3,0.8-1.2,1.5-1.4
			c1.2-0.3,1,0.7,1.4,1.3c0.6,0.8,1.4,0,2.2,0c1.9,0.2,0.4,2-0.2,2.5c-0.7,0.7-0.8,2.6-2,2.7C377.1,272.4,376.9,272.3,376.7,272.3"
			/>
		<path class="st4" d="M376.7,272.3c-1.6-0.5-1.3-1.8-2.1-2.9c-0.6-0.9-2.2-1.5-0.3-2.2c0.8-0.3,0.8-1.2,1.5-1.4
			c1.2-0.3,1,0.7,1.4,1.3c0.6,0.8,1.4,0,2.2,0c1.9,0.2,0.4,2-0.2,2.5c-0.7,0.7-0.8,2.6-2,2.7C377.1,272.4,376.9,272.3,376.7,272.3z"
			/>
		<path class="st3" d="M362,253.2c-0.3,0.7,0.6,1.5,0.2,2.2c-0.3,0.4-1.3,0.4-1.7,0.3c-0.9-0.3-1.5-1-2.1-1.7
			c-0.4-0.6-1.3-1.6-0.6-2.3c0.6-0.7,1.5,0.2,2.2,0.2c-0.1-0.5-0.7-1-0.6-1.6c0.1-0.8,0.9-1,1.5-0.8c1,0.3,1,1.1,1.5,1.8
			c0.6,0.7,1.1,0.1,1.8,0.2c2.2,0.2,1.1,3.6-0.5,2.3C363.3,253.4,362.4,252.2,362,253.2"/>
		<path class="st4" d="M362,253.2c-0.3,0.7,0.6,1.5,0.2,2.2c-0.3,0.4-1.3,0.4-1.7,0.3c-0.9-0.3-1.5-1-2.1-1.7
			c-0.4-0.6-1.3-1.6-0.6-2.3c0.6-0.7,1.5,0.2,2.2,0.2c-0.1-0.5-0.7-1-0.6-1.6c0.1-0.8,0.9-1,1.5-0.8c1,0.3,1,1.1,1.5,1.8
			c0.6,0.7,1.1,0.1,1.8,0.2c2.2,0.2,1.1,3.6-0.5,2.3C363.3,253.4,362.4,252.2,362,253.2z"/>
		<path class="st5" d="M388.1,280.8c0.1-0.8,0.7-1.5,1.6-1.5c1.4,0,1.8,0.1,2.3,1.6c0.3,0.9,0.4,2.2,0.9,3c0.6,0.9,2,2.5,1.2,3.7
			s-2.2,0.4-2.8-0.6c-0.3-0.6-0.2-1.2-0.5-1.8c-0.3-0.9-0.8-1.7-1.6-2.3C388.5,282.4,387.9,282,388.1,280.8"/>
		<path class="st5" d="M378,283.7c-1,0.5-2.3,1.4-1.1,2.4c0.9,0.7,2.3,0.6,3.1,1.4c0.7,0.7,0.8,2,1.7,2.6c1.3,1,1.9-1.1,1.9-2.1
			c0-0.7-0.2-1.6,0.1-2.3c0.3-0.8,1-1.4,1.3-2.2c0.4-0.9,0.3-1.6,0-2.6c-0.6-2.3-2.3-1.8-3.4-0.1c-0.5,0.7-0.6,1.7-1.2,2.2
			C379.7,283.3,378.7,283.3,378,283.7"/>
		<path class="st5" d="M359,285.1"/>
		<path class="st5" d="M359,265.5c-0.9-1.9-2.8-2.9-4-4.6c-0.8-1.2-0.4-3,0.4-4.1c1-1.4,2.7-1.2,4-0.4c0.7,0.5,1.2,1.3,2,1.7
			c1,0.6,2.1,0.9,3.1,1.2c2.1,0.7,3.2,1.8,4.1,3.8c0.8,1.6,0.9,4-0.6,5.3c-1,0.9-2.4,1.2-3.6,1.2s-2.5-0.8-3.5-1.4
			C359.9,267.8,359.5,266.6,359,265.5"/>
		<path class="st5" d="M421.3,247.1c-0.1-1.4,1.4-2.3,2.7-2.1c1.4,0.2,1.7,2.3,2.3,3.3c0.4,0.8,1.1,1,1.8,1.6c0.8,0.7,1.9,2.2,0.6,3
			c-0.9,0.5-2-0.1-2.6-0.8c-0.4-0.6-0.5-1.3-1.1-1.8c-0.9-0.9-2.7-1.1-3.4-2.2C421.4,247.7,421.3,247.4,421.3,247.1"/>
		<path class="st5" d="M430.6,249.8v-0.2c-0.1-1.9-3.7-1.9-2.9-4.2c0.4-1.1,1.8-0.8,2.8-0.9c1.7-0.1,2.7-0.6,3.8-2
			c0.6-0.7,1-1.2,1.9-0.6c0.8,0.5,1.1,1.8,1,2.7c-0.1,1.6-0.8,2.3-2.1,3.2c-0.6,0.4-1.3,1.1-1.6,1.7c-0.3,0.6-0.3,1.2-0.5,1.8
			c-0.3,0.7-1.4,1-2,0.6C430.3,251.5,430.6,250.5,430.6,249.8"/>
		<path class="st5" d="M443.3,245.1c0-2,2.1-2.6,3.7-2.2c1.4,0.4,2.3,2.4,2.2,3.7c-0.2,1.8-2,2.2-3.5,1.5
			C444.5,247.6,443.3,246.4,443.3,245.1"/>
		<path class="st5" d="M448.7,231c-4,0.3-2.3-3.8,0.3-4.4c0.5-0.1,1.1,0.1,1.6,0c0.6-0.2,1.1-0.7,1.5-1.2c1.2-1.5,2.8-2.2,3.7-0.1
			c0.8,1.8,3.4,0.8,4.1,2.5c0.8,1.9-1,2.8-2.5,2.9c-0.9,0.1-1.9,0.3-2.8,0.7c-0.7,0.3-1.1,0.8-1.9,0.8c-0.9,0-1.4-0.6-2.1-0.9
			C450,230.9,449.5,230.9,448.7,231"/>
		<path class="st3" d="M451,234.6c0,0.1,0,0.3,0,0.4c0.1,0.6,0.5,1.3-0.5,1.3c-0.5,0-0.6-0.5-0.9-0.8c-0.6-0.8-0.9,0-1.6-0.3
			c-0.5-0.2-0.7-0.5-0.4-1c0.2-0.4,0.8-0.2,1-0.5c0.6-0.6-0.6-1.8,0.3-2.3c0.4-0.2,1.3-0.1,1.7,0.1c0.5,0.2,1.1,0.8,1,1.4
			C451.6,233.8,451.1,234,451,234.6"/>
		<path class="st4" d="M451,234.6c0,0.1,0,0.3,0,0.4c0.1,0.6,0.5,1.3-0.5,1.3c-0.5,0-0.6-0.5-0.9-0.8c-0.6-0.8-0.9,0-1.6-0.3
			c-0.5-0.2-0.7-0.5-0.4-1c0.2-0.4,0.8-0.2,1-0.5c0.6-0.6-0.6-1.8,0.3-2.3c0.4-0.2,1.3-0.1,1.7,0.1c0.5,0.2,1.1,0.8,1,1.4
			C451.6,233.8,451.1,234,451,234.6z"/>
		<path class="st3" d="M450.6,223.5c-0.4,0.2-0.4,0.4-0.5,0.8c-0.2,0.3-0.3,0.5-0.5,0.7s-0.5,0.2-0.5,0.4c0,0.4,0.5,0.6,0.8,0.6
			c0.9,0.2,2.2-0.7,2.1-1.7C451.9,223.7,451.2,223.3,450.6,223.5"/>
		<path class="st4" d="M450.6,223.5c-0.4,0.2-0.4,0.4-0.5,0.8c-0.2,0.3-0.3,0.5-0.5,0.7s-0.5,0.2-0.5,0.4c0,0.4,0.5,0.6,0.8,0.6
			c0.9,0.2,2.2-0.7,2.1-1.7C451.9,223.7,451.2,223.3,450.6,223.5z"/>
		<path class="st3" d="M425,235.9c-0.4,0.4,0.1,1.1-0.6,1.3c-0.8,0.3-0.4-1.1-1.1-1c-0.5,0-0.5,0.8-0.5,1.2c-0.7,0.2-1.5-0.3-1.2-1
			c0.1-0.2,0.6-0.4,0.5-0.6c-0.2-0.7-0.8,0.2-0.9,0.2c-0.8,0-0.4-0.6-0.2-1.1c0.2-0.4,0.6-0.5,0-0.9c-0.5-0.3-1.2,0.2-1.7,0.1
			c-0.5-0.1-1.7-0.8-1.1-1.5c0.3-0.4,1.1,0,1.5-0.2c0.6-0.2,1.1-1.6,1.8-0.8c0.5,0.6-0.3,1.3,0.1,1.9c0.8,1.2,1.5-0.5,2.3-0.5
			c1.4,0-0.2,1.6,0.1,2c0.4,0.7,1.2-0.5,1.6-0.4C426.8,234.9,425.1,235.8,425,235.9"/>
		<path class="st4" d="M425,235.9c-0.4,0.4,0.1,1.1-0.6,1.3c-0.8,0.3-0.4-1.1-1.1-1c-0.5,0-0.5,0.8-0.5,1.2c-0.7,0.2-1.5-0.3-1.2-1
			c0.1-0.2,0.6-0.4,0.5-0.6c-0.2-0.7-0.8,0.2-0.9,0.2c-0.8,0-0.4-0.6-0.2-1.1c0.2-0.4,0.6-0.5,0-0.9c-0.5-0.3-1.2,0.2-1.7,0.1
			c-0.5-0.1-1.7-0.8-1.1-1.5c0.3-0.4,1.1,0,1.5-0.2c0.6-0.2,1.1-1.6,1.8-0.8c0.5,0.6-0.3,1.3,0.1,1.9c0.8,1.2,1.5-0.5,2.3-0.5
			c1.4,0-0.2,1.6,0.1,2c0.4,0.7,1.2-0.5,1.6-0.4C426.8,234.9,425.1,235.8,425,235.9z"/>
		<path class="st3" d="M409.8,213.2c0.2-0.3,0.6-0.5,1-0.5c0.5,0,0.7,0.4,1.1,0.5c1.1,0.2,0.6-2,2-0.7c0.6,0.6,0.6,1.3,1.5,0.9
			c0.6-0.3,1.7-1.1,1.7,0.4c0,0.5-0.3,0.7-0.6,1c-0.3,0.2-0.4,0.1-0.7,0.4c-0.4,0.6-0.1,1-1,1.2c-0.4-0.3-0.4-0.8-0.9-1.1
			c-0.5,0.2-0.8,1-1.3,1.1c-0.8,0.3-0.6-0.4-0.7-0.9c-0.3-1.4-1.5-0.3-2.3-1.1C409.4,214.1,409.5,213.6,409.8,213.2"/>
		<path class="st4" d="M409.8,213.2c0.2-0.3,0.6-0.5,1-0.5c0.5,0,0.7,0.4,1.1,0.5c1.1,0.2,0.6-2,2-0.7c0.6,0.6,0.6,1.3,1.5,0.9
			c0.6-0.3,1.7-1.1,1.7,0.4c0,0.5-0.3,0.7-0.6,1c-0.3,0.2-0.4,0.1-0.7,0.4c-0.4,0.6-0.1,1-1,1.2c-0.4-0.3-0.4-0.8-0.9-1.1
			c-0.5,0.2-0.8,1-1.3,1.1c-0.8,0.3-0.6-0.4-0.7-0.9c-0.3-1.4-1.5-0.3-2.3-1.1C409.4,214.1,409.5,213.6,409.8,213.2z"/>
		<path class="st5" d="M358.6,230.7v0.1c0.1,1.5,3.9,2.4,2.6,4.1c-0.9,1.3-3.1,1.1-3.9-0.2c-0.5-0.8-0.2-1.9-0.7-2.7
			c-0.6-0.9-2.4-1.6-2.5-2.8c-0.1-1.3,2.1-2.5,3.2-1.9c0.6,0.3,1.1,0.9,1.2,1.5C358.8,229.4,358.6,230,358.6,230.7"/>
		<path class="st5" d="M342.7,238.3c-0.1,0-0.2,0-0.3-0.1c-0.8-0.2-1.2-1.2-1.2-1.9c0-0.8,0.7-1,0.8-1.8c0.1-1.2-0.9-1.6-1.7-2.2
			c-0.4-0.3-1-0.9-1-1.5c0-1,1.1-0.9,1.8-0.8c1.3,0.1,2.4,0.2,3.7-0.1c1.1-0.3,1.5-1.4,2.6-1.8c2.4-0.9,3,2.7,2.2,4.2
			s-2.7,1.5-4,2.4c-0.8,0.6-0.9,1.1-1.3,2C343.9,237.4,343.5,238.3,342.7,238.3"/>
		<path class="st5" d="M331.8,231.9c-0.7-0.7-1.8-1.7-0.8-2.7c0.9-0.9,3.3-0.8,4.1,0.1c1.1,1.3,2.7,5.4-0.5,5.3
			C333.2,234.6,332.7,232.8,331.8,231.9L331.8,231.9z"/>
		<path class="st5" d="M190.1,328.3c0.1,0.9,0.4,1.5-0.6,2.2c-0.8,0.5-1.4,0.7-1.3,1.8c0.1,0.9,0.9,1.7,0.3,2.6
			c-0.6,0.9-2.2,1.2-3.2,1.2c-1.5,0-2.7-0.7-3.7-1.8c-1.1-1.2-2-1.8-2-3.5c0-1.6,1.4-2.8,2.7-3.7c0.9-0.6,1.8-1.2,2.5-2
			c0.4-0.5,0.9-1,1.6-1.2c0.6-0.2,1.2,0.1,1.7-0.1c0.7-0.2,1.4-0.8,2-1.1c1.9-1.1,3,0.8,2.1,2.5c-0.5,1-1.8,1.1-2,2.5
			C190.1,327.9,190.1,328.1,190.1,328.3"/>
		<path class="st3" d="M197.7,328.3c-1.7,0.2-2.6,1.6-3.8,2.7c-0.7,0.6-1.2,1-2.1,0.8c-2.8-0.5-1.2,2.1-1.8,3.7
			c-0.3,0.8-1.2,1.3-2,1.5 M188,337.1c-1.1,0.2-2.3,0.1-3.1,1.1s0.1,1.7,1.1,1.9c0.7,0.2,1.6,0.1,2.2-0.3c0.6-0.5,0.6-1.1,1.6-1.1
			c0.5,0,1,0.3,1.5,0.2 M191.8,336.9c-0.7-0.5-0.8-1.6-0.3-2.2c0.5-0.7,1.6-0.8,2.3-0.3"/>
		<path class="st4" d="M197.7,328.3c-1.7,0.2-2.6,1.6-3.8,2.7c-0.7,0.6-1.2,1-2.1,0.8c-2.8-0.5-1.2,2.1-1.8,3.7
			c-0.3,0.8-1.2,1.3-2,1.5c-1.1,0.2-2.3,0.1-3.1,1.1s0.1,1.7,1.1,1.9c0.7,0.2,1.6,0.1,2.2-0.3c0.6-0.5,0.6-1.1,1.6-1.1
			c0.5,0,1,0.3,1.5,0.2 M191.8,336.9c-0.7-0.5-0.8-1.6-0.3-2.2c0.5-0.7,1.6-0.8,2.3-0.3"/>
		<path class="st5" d="M316.4,268.3c0.1,0.2,0.2,0.3,0.3,0.5c0.4,1.1-0.1,2.6-1,3.4c-0.8,0.8-2,0.8-2.9,1.6
			c-0.9,0.8-1.2,2.1-2.1,2.9c-0.5,0.4-1.7,0.8-2.1,0c-0.5-0.9,0.1-2.4,0-3.4s-0.5-1.3-1.2-1.9c-0.6-0.5-1.3-1.4-0.4-2
			c1.1-0.9,2.1,0,3.2,0.1c1.2,0.1,2.6-0.6,3.6-1.2C314.6,267.7,315.6,267.1,316.4,268.3"/>
		<path class="st5" d="M323.7,262.6c1.1,1.2,1.8,3.1,0.4,4.3c-0.9,0.8-2.5,0.2-3.4-0.3c-1.8-1-2.7-3.2-1.2-4.8
			C320.6,260.3,322.6,261.5,323.7,262.6"/>
		<path class="st5" d="M299.7,274.9c-0.1-0.3-0.2-0.6-0.3-0.7c-0.8-1.2-3.1-1.9-2.3-3.5c0.5-1,1.9-1.8,3-1.3c1.2,0.5,1,2.1,1.2,3.1
			c0.2,1.1,0.9,1.5,1.7,2.1c1.1,0.9,1.2,2.9-0.1,3.6C300.8,279.2,300.2,276.5,299.7,274.9"/>
		<path class="st5" d="M291.7,271"/>
		<path class="st5" d="M291.7,271"/>
		<path class="st5" d="M294.8,260.4c-2.5-1.5-2.1-4.3-1.7-6.9c0.1-0.8,0.4-1.8,0.2-2.6c-0.2-0.8-1.1-1.3-0.9-2.2
			c0.2-0.8,0.9-1.5,1.8-1.5c0.7,0,1.2,0.7,1.9,0.9c0.5,0.2,0.6,0,1.1-0.2c0.5-0.3,0.5-0.3,1.1-0.3c1.3,0,1.5,0.3,2.5,1
			c1.6,1.1,2.9,0.4,4.5,0.2c1.3-0.1,2.1,0.3,2.9,1.3c0.9,1.1,2,2.4,1.9,3.9c-0.1,0.9-0.6,1.4-1.1,2c-0.6,0.8-1.2,1.7-2.1,2.2
			c-0.5,0.3-1,0.4-1.5,0.5c-1.1,0.2-2.2-0.3-3.3-0.2c-1.2,0.1-2.4,0.5-3.4,1.4C297.4,261,296.3,261.3,294.8,260.4"/>
		<path class="st5" d="M260.3,248.8c-1.5-0.3-2.9-1.5-2.5-3c0.2-0.9,1-1.4,1.8-1.3c0.7,0.1,1.4,0.6,2.2,0.8c0.7,0.2,1.6,0.3,2,1
			c0.5,0.8,0.1,2-0.7,2.3c-1.1,0.6-2.4,0.5-3.6,0"/>
		<path class="st5" d="M249.9,239.9c1.6,0.6,4.5,2,3.9,4.2c-0.4,1.3-1.3,1.6-2.6,1.4c-1.1-0.2-2.4,0.3-3.2-0.6
			c-0.7-0.8-0.2-1.9-0.4-2.8c-0.1-0.5-0.5-0.8-0.4-1.4C247.3,239.5,249,239.5,249.9,239.9"/>
		<path class="st5" d="M237.2,243.3c-0.9-1-0.6-2.6,0.2-3.6c0.6-0.7,1.3-0.8,2.1-0.4c0.6,0.3,1.6,1,2,1.5c1,1.2-0.4,2.9-1.7,3
			C239,243.9,237.8,244,237.2,243.3"/>
		<path class="st5" d="M241.2,231c0.1,0,0.3-0.1,0.4-0.1c1.2-0.2,2,0.7,3.1,0.9c1,0.2,2.3-0.4,2.8,0.9c0.3,1-0.6,1.7-1.5,1.9
			c-0.7,0.1-1.2-0.2-1.8-0.3s-1.3,0-2,0c-1,0-3-0.2-3-1.6C239.2,231.7,240.3,231.2,241.2,231"/>
		<path class="st2" d="M218.4,262.7c-1.6-2.2-3.9-5.3-3.7-7c0.2-1.6,2.5-1.7,3.8-1.9c1-0.1,1.6,0,2.4,0.6c1,0.7,3.1,3.2,4.2,1.2
			c0.9-1.6-2.1-2.6-0.7-4.4c1-1.2,2.7-1.9,4.1-2.4c1.6-0.6,3.3-0.2,4.8,0.4c2.2,0.7,4.3,2.6,6.2,3.9c1.9,1.4,3.7,3.2,3.9,5.7
			c0.1,1.2-0.3,2.3-0.3,3.5c0,1.7,0.7,3.4,1.5,4.9c0.8,1.3,2.4,2.5,2.8,3.9c0.7,3-4.1,2-5.5,1.5s-2.8-1.1-4.3-0.8s-2.1,1.1-3.1,2.2
			c-0.7,0.8-1.5,0.9-2.5,0.8c-1.7-0.1-3.1-1.1-4.5-2c-3.1-1.9-6-5.4-8-8.7C219.2,263.8,218.8,263.3,218.4,262.7"/>
		<path class="st5" d="M229.5,268.4c0.5,0.8,1.9,3.6-0.3,3.1c-0.8-0.2-1.7-0.9-2.4-1.5c-1.9-1.7-3.5-3.8-5.2-5.8
			c-1.2-1.4-1.2-3.5-2.7-4.9c-0.7-0.7-2.6-2.3-1.8-3.5c1.2-2,4.3,1.5,4.9,2.5c1.2,1.7,1.7,3.6,3,5.2c0.7,0.8,1.4,1.6,2.2,2.2
			C228,266.4,228.9,267.4,229.5,268.4"/>
		<path class="st5" d="M230.7,263.1c-1.1-0.6-4.5-1.5-4.1-3.1c0.6-2.1,2.9,0.4,3.9,1c0.7,0.5,1.7,0.9,2.5,1.2c2.1,0.9,4.4,1,6.5,1.7
			c0.7,0.2,1.9,1.1,1.9,1.9c0.3,2.7-2.8,2.1-4.2,1.2C235,265.8,232.9,264.4,230.7,263.1"/>
		<path class="st5" d="M229.5,256.1c-1.3-0.7-3.3-2.2-2.4-3.9c1-2,2.9-1.6,4.5-0.5c1.2,0.9,2.2,1.7,3.6,2.3c1.2,0.6,2.3,1.3,3.4,2
			c0.6,0.4,1,0.4,1.4,0.9c0.4,0.6,1.1,1.7,0.9,2.5c-0.3,0.8-1.4,1.4-2.1,1.6c-1.1,0.2-2.2-0.7-2.9-1.4c-0.6-0.6-1.2-1.3-1.9-1.9
			C232.5,256.9,230.9,256.8,229.5,256.1"/>
		<path class="st5" d="M177.3,297.5c0.8,0.7,0.9,2.2-0.5,2.1c-0.8,0-1.9-0.6-2.5-1.2c-0.2-0.2-0.5-0.6-0.4-0.9
			c0.2-0.5,0.6-0.3,1-0.3C175.8,297.1,176.7,296.9,177.3,297.5"/>
		<path class="st5" d="M170.3,291.2c0.5,0.1,0.9,0.4,1.3,1c0.9,1.7-1.8,2.8-2.8,1.5C167.8,292.4,169.1,291.1,170.3,291.2"/>
		<path class="st5" d="M159.8,290.2c0.2-1.8,1.9-2.2,3.5-1.9c0.9,0.2,1.5,0.5,1.8,1.5c0.4,1.2-0.7,2.7-1.9,2.8
			C161.9,292.7,159.6,291.7,159.8,290.2"/>
		<path class="st5" d="M178.1,288.7c-0.6,0.1-1.4,0.7-2,0c-0.8-1,0.2-2.3,1-2.8c0.9-0.6,1.8-0.6,2.7,0c0.5,0.4,1.6,1.1,1.2,1.9
			C180.5,288.7,178.9,288.5,178.1,288.7"/>
		<path class="st5" d="M166.4,279.3c0.2-0.7,0.5-1.3,0.5-2c0.1-0.8-0.1-1.5,0.2-2.4c0.2-0.6,0.6-0.9,1.3-0.7
			c0.9,0.3,0.6,1.5,0.7,2.2c0.3,1.9,0.6,3.3-0.4,5c-0.3,0.5-1.6,0.4-2,0.1C165.9,281.1,166.1,280,166.4,279.3"/>
		<path class="st5" d="M171.3,275.6c-0.1-0.7-0.3-2.1,0.3-2.7c0.6-0.6,1.8-0.3,2.3,0.2c0.7,0.8,0.4,1.9,0.4,2.9
			c0,0.8,0.3,1.5,0.3,2.3c0,1.2-0.9,1.7-1.9,0.9C171.7,278.4,171.4,276.9,171.3,275.6"/>
		<path class="st5" d="M181.6,283.3c-0.5-1.2,0.6-2.6,1.8-2.6s1.7,1.4,1.6,2.4C184.8,285.5,182.3,285.2,181.6,283.3"/>
		<path class="st5" d="M190.3,283.7c0.3,0.2,0.6,0.4,0.8,0.7c0.6,1.1-0.1,2.8-1.3,3c-1.1,0.2-2.3-0.6-2.4-1.8
			C187.4,283.9,188.8,282.8,190.3,283.7"/>
		<path class="st5" d="M200.9,276.6c1.3-0.6,2.7-0.7,3.9-1.4c1.5-0.8,1.2-1.4,0.7-2.8c-0.4-1.3,0.1-2.9,1.7-2.7
			c1.8,0.1,1.3,2,1.9,3.1c0.3,0.6,1.2,1,1,1.8c-0.3,1.5-1.6,1.8-2.9,2.2c-1.5,0.4-2.8,1.1-3.9,2.3c-0.8,0.8-2.6,1.4-3.3,0.4
			C199.4,278.5,199.7,277.2,200.9,276.6"/>
		<path class="st5" d="M219.5,234.3c-0.5-0.8-1.1-1.5-1.8-2.3c-0.5-0.6-1-1.6-0.7-2.4c0.4-1.3,2.1-1.9,3.1-2.6
			c0.7-0.5,1.1-1.5,1.8-1.9c1.2-0.6,1.8,0.6,2.1,1.6c0.4,1.3-0.3,2.2-0.3,3.4c0,2.4,4.3,3.2,3,6.1c-0.6,1.4-1.9,2.4-3.5,1.9
			c-0.8-0.3-1.1-0.7-1.6-1.3c-0.7-0.8-1.4-1.4-2-2.3L219.5,234.3z"/>
		<path class="st3" d="M217.1,236.1c1.2,0.5,1.2,2.3-0.1,2.7C214.6,239.7,215.2,235.4,217.1,236.1"/>
		<path class="st4" d="M217.1,236.1c1.2,0.5,1.2,2.3-0.1,2.7C214.6,239.7,215.2,235.4,217.1,236.1z"/>
		<path class="st3" d="M229.9,239.2c-0.4-0.2-0.7-0.5-1-0.7c-0.3-0.1-0.8,0.1-1.1-0.1c-0.4-0.3-0.2-1-0.2-1.4
			c0.2-1.1,1.4-2.3,2.4-2.4c0.8-0.1,1.3,0.3,1.4,1c0.1,0.7-0.3,0.5-0.5,0.9c-0.4,0.6,0,0.7,0.3,1.3c0.5,1.1-1.1,2-1.8,1"/>
		<path class="st4" d="M229.9,239.2c-0.4-0.2-0.7-0.5-1-0.7c-0.3-0.1-0.8,0.1-1.1-0.1c-0.4-0.3-0.2-1-0.2-1.4
			c0.2-1.1,1.4-2.3,2.4-2.4c0.8-0.1,1.3,0.3,1.4,1c0.1,0.7-0.3,0.5-0.5,0.9c-0.4,0.6,0,0.7,0.3,1.3c0.5,1.1-1.1,2-1.8,1"/>
		<path class="st3" d="M228.8,233.8c0.7,0.4,1.2,0.8,2,0.3c1.3-0.8,0-1.4-0.7-1.7c-0.8-0.4-1.3-2.2-2.2-2c-0.5,0.1-0.8,0.9-0.9,1.3
			c-0.2,0.7-0.1,0.9,0.5,1.5C227.9,233.5,228.3,233.5,228.8,233.8"/>
		<path class="st4" d="M228.8,233.8c0.7,0.4,1.2,0.8,2,0.3c1.3-0.8,0-1.4-0.7-1.7c-0.8-0.4-1.3-2.2-2.2-2c-0.5,0.1-0.8,0.9-0.9,1.3
			c-0.2,0.7-0.1,0.9,0.5,1.5C227.9,233.5,228.3,233.5,228.8,233.8z"/>
		<path class="st5" d="M101.2,269.5c-0.1-0.4-0.2-0.8-0.1-1.1c0.1-0.8,0.9-1.4,0.8-2.2c-0.1-0.8-1.3-1.3-1.9-1.7
			c-0.4-0.3-1-1-0.9-1.6c0.2-0.7,1.3-1.2,1.9-0.9c1.8,0.6,2.2,2.7,4.1,3.2c0.9,0.2,1.8,0.3,2.6,0.9c0.9,0.7,0,2.3-0.8,2.6
			c-0.6,0.2-1.2-0.3-1.8-0.2c-1,0.2-1.5,1.5-2.3,1.9C102,270.6,101.4,270.1,101.2,269.5"/>
		<path class="st5" d="M113.6,252.1c1,0.3,1.3,1.4,0.6,2.2c-0.7,0.8-1.8,1-2.8,1.2c-1.1,0.2-1.9,0.8-3,0.4c-1-0.3-1.2-1.2-0.8-2.1
			c0.4-0.9,1-0.8,1.9-1C110.9,252.7,112.3,251.7,113.6,252.1"/>
		<path class="st5" d="M123.7,262.6c-0.3,1.8-3,2.2-3.3,0.2c-0.1-1.1,0.8-2.5,2-1.9C123,261.1,123.8,261.9,123.7,262.6"/>
		<path class="st5" d="M93.7,267.3c-1.1-0.4-2.5-2.2-1.6-3.3s2.6-0.2,3.2,0.8c0.4,0.8,0.3,2.2-0.6,2.5
			C94.3,267.5,94,267.4,93.7,267.3"/>
		<path class="st3" d="M55.5,273.7c1,0,1.3,1.5,0.3,1.8C54.6,275.7,54.2,273.6,55.5,273.7"/>
		<path class="st4" d="M55.5,273.7c1,0,1.3,1.5,0.3,1.8C54.6,275.7,54.2,273.6,55.5,273.7z"/>
		<path class="st3" d="M65.3,270.4c1.5,0.1,1.5,2.1,0.2,2.4C63.7,273.4,63.1,270.2,65.3,270.4"/>
		<path class="st4" d="M65.3,270.4c1.5,0.1,1.5,2.1,0.2,2.4C63.7,273.4,63.1,270.2,65.3,270.4z"/>
		<path class="st3" d="M49.3,265.4c1.4,0.3,0.7,2-0.3,2.2c-0.9,0.2-2-0.4-2.4-1.1c-0.4-0.6-0.1-1.9,0.7-2.1c0.3-0.1,1,0,1.2,0.3
			c0.2,0.2,0,0.4,0.3,0.5C48.9,265.3,49.1,265.3,49.3,265.4"/>
		<path class="st4" d="M49.3,265.4c1.4,0.3,0.7,2-0.3,2.2c-0.9,0.2-2-0.4-2.4-1.1c-0.4-0.6-0.1-1.9,0.7-2.1c0.3-0.1,1,0,1.2,0.3
			c0.2,0.2,0,0.4,0.3,0.5C48.9,265.3,49.1,265.3,49.3,265.4z"/>
		<path class="st3" d="M50.3,262.5c-0.1,0.7-0.5,1.5,0.3,2c0.7,0.4,1.4,0.1,1.7-0.6c0.1-0.3,0-0.6,0.2-0.8c0.2-0.4,0.4-0.3,0.8-0.5
			c0.6-0.3,0.6-0.8,0.6-1.4c0-0.8,0.5-0.8,1.2-0.9c0.5-0.1,1.3,0,1.6-0.6c0.3-0.6,0.2-1.8-0.1-2.4c-0.4-0.9-0.8-0.2-1.3,0
			c-0.6,0.2-1.1-0.2-1.8,0.1c-1.1,0.5-0.2,1.8-1.1,2.3c-0.8,0.5-2.2-0.2-2.7,0.9C49.4,261.4,50.4,261.8,50.3,262.5"/>
		<path class="st4" d="M50.3,262.5c-0.1,0.7-0.5,1.5,0.3,2c0.7,0.4,1.4,0.1,1.7-0.6c0.1-0.3,0-0.6,0.2-0.8c0.2-0.4,0.4-0.3,0.8-0.5
			c0.6-0.3,0.6-0.8,0.6-1.4c0-0.8,0.5-0.8,1.2-0.9c0.5-0.1,1.3,0,1.6-0.6c0.3-0.6,0.2-1.8-0.1-2.4c-0.4-0.9-0.8-0.2-1.3,0
			c-0.6,0.2-1.1-0.2-1.8,0.1c-1.1,0.5-0.2,1.8-1.1,2.3c-0.8,0.5-2.2-0.2-2.7,0.9C49.4,261.4,50.4,261.8,50.3,262.5z"/>
		<path class="st5" d="M53,269.6c-0.7-0.5-1.2-0.6-1.4-1.6c-0.1-0.8,0.3-1.5,0.9-2.1c0.8-0.8,1.6-1.7,2.6-2.3
			c0.9-0.5,1.9-0.8,2.8-1.2c1-0.4,1.8-1,2.9-1.1c2.5,0,4.4,2,3.9,4.5c-0.2,0.8-0.8,1.5-1.2,2.2c-0.5,0.9-1.3,1.9-2.4,2
			c-1.1,0-2.1-0.3-3.2,0.4c-0.5,0.4-0.5,1.1-1.1,1.3C55.3,272.2,54.1,270.3,53,269.6"/>
		<path class="st2" d="M313.6,301.2c1.2-0.4,2.8-0.8,4.1-0.7c1.3,0,2.6,0.6,4,0.6s2.7-0.3,4-0.8c1.2-0.5,2.4-1.1,3.7-0.9
			c3.7,0.5,4.3,4.6,2.1,7.2c-0.9,1.1-2,1.3-3.1,2c-1,0.6-1.5,1.4-2.3,2.4"/>
		<path class="st5" d="M323.7,305.5c-0.1-1.2,0.8-2,1.2-3.1c0.5-1.1,0.5-2.1,1.5-2.9c0.9-0.7,2-1,3.1-1.4c1.2-0.3,2.2-1.2,3.5-0.7
			s1.6,2,2.2,3c1.7,2.6,0.9,4.9-1.8,6.3C330.6,308.3,324,311.3,323.7,305.5"/>
		<path class="st3" d="M325.6,297.4c-0.7,0.4-2.1,0.5-2.4,1.4c-0.3,0.7,0.4,1.5,1.2,1.2c0.5-0.2,0.9-0.9,1.3-1.2
			c0.6-0.4,1.4-0.3,2-0.7s0.5-1.1-0.1-1.4C326.8,296.4,326.2,297.1,325.6,297.4"/>
		<path class="st4" d="M325.6,297.4c-0.7,0.4-2.1,0.5-2.4,1.4c-0.3,0.7,0.4,1.5,1.2,1.2c0.5-0.2,0.9-0.9,1.3-1.2
			c0.6-0.4,1.4-0.3,2-0.7s0.5-1.1-0.1-1.4C326.8,296.4,326.2,297.1,325.6,297.4z"/>
		<line class="st6" x1="317" y1="305.9" x2="317.4" y2="306.3"/>
		<path class="st7" d="M316.2,309.2"/>
		<g>
			<path class="st1" d="M158.9,293.2"/>
			<path class="st1" d="M160.5,291.1"/>
			<path class="st1" d="M162.1,289"/>
			<path class="st1" d="M163.7,286.9"/>
			<path class="st1" d="M165.4,284.8"/>
			<path class="st1" d="M167,282.7"/>
			<path class="st1" d="M168.6,280.7"/>
			<path class="st1" d="M170.2,278.6"/>
			<path class="st1" d="M171.8,276.5"/>
			<path class="st1" d="M173.5,274.4"/>
			<path class="st1" d="M175.1,272.3"/>
			<path class="st1" d="M176.7,270.3"/>
			<path class="st1" d="M178.3,268.2"/>
			<path class="st1" d="M180,266.1"/>
			<path class="st1" d="M181.6,264"/>
			<path class="st1" d="M183.2,261.9"/>
			<path class="st1" d="M197.8,243.2"/>
			<path class="st1" d="M199.4,241.1"/>
			<path class="st1" d="M201.1,239"/>
			<path class="st1" d="M444.5,339.3"/>
			<path class="st1" d="M202.7,236.9"/>
			<path class="st1" d="M446.1,337.2"/>
			<path class="st1" d="M204.3,234.8"/>
			<path class="st1" d="M447.7,335.1"/>
		</g>
		<line class="st8" x1="337.6" y1="202.4" x2="342.4" y2="217.3"/>
		<line class="st8" x1="353.5" y1="214.6" x2="350.5" y2="198.9"/>
		<line class="st8" x1="357.5" y1="213.8" x2="354.5" y2="198.4"/>
		<line class="st8" x1="361.4" y1="213.1" x2="358.4" y2="197.3"/>
		<line class="st8" x1="365.4" y1="212.3" x2="362.4" y2="197"/>
		<line class="st8" x1="369.3" y1="211.5" x2="366.3" y2="195.9"/>
		<line class="st8" x1="373.3" y1="210.8" x2="370.2" y2="195.3"/>
		<line class="st8" x1="377.2" y1="210" x2="374" y2="193.7"/>
		<line class="st8" x1="381.2" y1="209.3" x2="378.3" y2="193.9"/>
		<line class="st8" x1="385.2" y1="208.5" x2="382.2" y2="193.3"/>
		<line class="st8" x1="389.1" y1="207.8" x2="386.1" y2="192.1"/>
		<line class="st8" x1="404.8" y1="190.9" x2="403.8" y2="207.2"/>
		<line class="st8" x1="409" y1="191.1" x2="407.9" y2="207.5"/>
		<line class="st8" x1="412.9" y1="191.9" x2="411.9" y2="207.8"/>
		<line class="st8" x1="346" y1="216.2" x2="341.9" y2="200.6"/>
		<line class="st8" x1="349.7" y1="215.3" x2="346.3" y2="199.6"/>
		<line class="st8" x1="392.8" y1="207.1" x2="390.7" y2="191.3"/>
		<line class="st8" x1="342.4" y1="217.3" x2="346" y2="216.2"/>
		<line class="st8" x1="396.2" y1="206.8" x2="395.9" y2="190.7"/>
		<line class="st8" x1="400.9" y1="190.9" x2="399.8" y2="207"/>
		<line class="st8" x1="346" y1="216.2" x2="349.7" y2="215.3"/>
		<line class="st8" x1="349.7" y1="215.3" x2="353.5" y2="214.6"/>
		<line class="st8" x1="353.5" y1="214.6" x2="357.5" y2="213.8"/>
		<line class="st8" x1="357.5" y1="213.8" x2="361.4" y2="213.1"/>
		<line class="st8" x1="361.4" y1="213.1" x2="365.4" y2="212.3"/>
		<line class="st8" x1="365.4" y1="212.3" x2="369.3" y2="211.5"/>
		<line class="st8" x1="369.3" y1="211.5" x2="373.3" y2="210.8"/>
		<line class="st8" x1="373.3" y1="210.8" x2="377.2" y2="210"/>
		<line class="st8" x1="377.2" y1="210" x2="381.2" y2="209.3"/>
		<line class="st8" x1="381.2" y1="209.3" x2="385.2" y2="208.5"/>
		<line class="st8" x1="385.2" y1="208.5" x2="389.1" y2="207.8"/>
		<line class="st8" x1="389.1" y1="207.8" x2="392.8" y2="207.1"/>
		<line class="st8" x1="392.8" y1="207.1" x2="396.2" y2="206.8"/>
		<line class="st8" x1="396.2" y1="206.8" x2="399.8" y2="207"/>
		<line class="st8" x1="399.8" y1="207" x2="403.8" y2="207.2"/>
		<line class="st8" x1="403.8" y1="207.2" x2="407.9" y2="207.5"/>
		<line class="st8" x1="407.9" y1="207.5" x2="411.9" y2="207.8"/>
		<line class="st8" x1="476.1" y1="217.4" x2="467.9" y2="227.3"/>
		<line class="st8" x1="467.9" y1="227.3" x2="467.2" y2="228.1"/>
		<line class="st8" x1="472.7" y1="214.5" x2="464.4" y2="224.4"/>
		<line class="st8" x1="480.1" y1="220" x2="470.6" y2="231.1"/>
		<line class="st8" x1="416.5" y1="208.1" x2="417.7" y2="191.9"/>
		<line class="st8" x1="421" y1="208.4" x2="422.1" y2="192.7"/>
		<line class="st8" x1="425.4" y1="208.7" x2="426.5" y2="193"/>
		<line class="st8" x1="429.9" y1="209" x2="431.3" y2="193.4"/>
		<line class="st8" x1="434.1" y1="209.6" x2="436.6" y2="194.4"/>
		<line class="st8" x1="438.3" y1="210.5" x2="441.7" y2="196.1"/>
		<line class="st8" x1="442.4" y1="211.6" x2="446.9" y2="197.6"/>
		<line class="st8" x1="446.4" y1="213.1" x2="451.8" y2="199.6"/>
		<line class="st8" x1="450.3" y1="214.8" x2="456.7" y2="202"/>
		<line class="st8" x1="454.1" y1="216.8" x2="460.6" y2="205.7"/>
		<line class="st8" x1="457.7" y1="219.1" x2="465" y2="208.5"/>
		<line class="st8" x1="425.4" y1="208.7" x2="429.9" y2="209"/>
		<line class="st8" x1="421" y1="208.4" x2="425.4" y2="208.7"/>
		<line class="st8" x1="416.5" y1="208.1" x2="421" y2="208.4"/>
		<line class="st8" x1="411.9" y1="207.8" x2="416.5" y2="208.1"/>
		<line class="st8" x1="469.2" y1="211.6" x2="461.1" y2="221.7"/>
		<line class="st8" x1="429.9" y1="209" x2="434.1" y2="209.6"/>
		<line class="st8" x1="438.3" y1="210.5" x2="442.4" y2="211.6"/>
		<line class="st8" x1="442.4" y1="211.6" x2="446.4" y2="213.1"/>
		<line class="st8" x1="446.4" y1="213.1" x2="450.3" y2="214.8"/>
		<line class="st8" x1="450.3" y1="214.8" x2="454.1" y2="216.8"/>
		<line class="st8" x1="454.1" y1="216.8" x2="457.7" y2="219.1"/>
		<line class="st8" x1="457.7" y1="219.1" x2="461.1" y2="221.7"/>
		<line class="st8" x1="461.1" y1="221.7" x2="464.4" y2="224.4"/>
		<line class="st8" x1="464.4" y1="224.4" x2="467.9" y2="227.3"/>
		<line class="st8" x1="467.2" y1="228.1" x2="470.6" y2="231.1"/>
		<path class="st8" d="M470.6,231.1"/>
		<line class="st8" x1="438.3" y1="210.5" x2="434.1" y2="209.6"/>
		<path class="st9" d="M408.8,153.1c3.2,2.5-7.3,14.7-18.7,14.1c-5-0.2-108.3,32.4-114.6,32.5c-1.5,0-2.8-0.5-3.9-1.3
			c-3.5-2.7-5-8.8-4.8-10.9c0.2-2.6-9.9-10.7-10.3-10.9l4.3-18.5l1.6,0.4l4.5,1.2h0.1l0,0l0,0h0.1l6-13.3l57.1-20
			c0.3,2,2.7,7.2,3.2,9.2s-1.2,5.7-2.6,7.7c-1.3,2-1.4,5.6,0.1,7.3c0.1,0.2,0.3,0.3,0.6,0.5c2.3,1.8,8.7,4.8,10.7,5.9
			c2.2,1.3,3.5,0.5,6-1.1s10.7-2.2,12.9-2.4c2.2-0.2,4.1-0.5,8.9-1.1c4.9-0.6,13.2-1,19,0.7s10.3,0.1,17.9-0.2
			C407.8,152.7,408.4,152.8,408.8,153.1"/>
		<path class="st10" d="M260.8,158.1l-4.3,18.5l0,0L260.8,158.1L260.8,158.1 M267,159.6L267,159.6l-4.6-1.1L267,159.6 M273.1,146.3
			l-6,13.3H267L273.1,146.3"/>
		<path class="st11" d="M281.6,167.1l4.2-14.5l-2.9-0.8l-4.2,14.5c-0.8,0.1-1.5,0.5-2,1.2l-0.1,0.1l-2-0.6l-0.6,2.2l2,0.6
			c0.1,0.9,0.5,1.7,1.3,2.3c1.4,1.1,3.5,0.9,4.6-0.6C283,170.2,282.8,168.3,281.6,167.1"/>
		<path class="st12" d="M264.9,200.3c1.4-1.8,3.9-2.1,5.6-0.7c1.8,1.4,2.1,3.9,0.7,5.6c-1.4,1.8-3.9,2.1-5.6,0.7
			C263.8,204.6,263.5,202.1,264.9,200.3"/>
		<path class="st13" d="M136.9,142.3c0,0-2.4-1.3-3.6-1.5c-1.5-0.2-2.7,1-4.9-0.2c-3.1-1.6-2.1-4.4-3.4-5.9
			c-0.7-0.8-1.1-1.2-1.1-1.2l3-4.7c0,0,0.8,1,1.9,2C129.9,132,136.9,142.3,136.9,142.3"/>
		<path class="st13" d="M129.3,155.2c0,0-2.3-0.1-3.3-1.2c-1-1.2-2.2-2.1-4.1-2.3c-2.6-0.2-2.8,1.9-4.8,2.3
			c-2.5,0.4-3.5,0.6-3.5,0.6l0.2,3.9L129.3,155.2z"/>
		<path class="st13" d="M131.5,197.2c0,0-1.8-3.3-5.5-3.3c-2.5,0-2.4-1.6-4.9-1.4c-2.3,0.3-2.5,2.5-4.6,3.3
			c-2.4,0.9-4.9,1.4-4.9,1.4l2,2.4L131.5,197.2z"/>
		<path d="M483.6,218.6"/>
	</g>
	<path id="Purple_2_" class="st14" d="M249.8,116.6c1.2,0.9,1.6,3.2,1.6,3.2c0.2,0.6-6.1,2.3-9.3,1.5c-3.1-0.7-5.4,0.3-7.3,1.6
		c-1.9,1.3-5.5,1.8-8.9,1.5c-3.4-0.4-9.3,1-12.6,2.7c-3.3,1.8-7.5,2-9.5,2.3s-1.5,3.4-1.7,4.2s-3.4,4.4-4.5,4.4
		c-1.1,0.1-2.3,0.1-5.5-0.1s-17.7,0.7-22.9,0.3c-5.3-0.4-12.4-2.7-19.3-4.2c-9.4-2-16.1-6.7-20.8-10.3c-0.5-0.4-0.9-0.7-1.4-1.1
		c-3.5-2.8-4.5-5.1-2.7-6.6c0.4-0.3,0.8-0.3,1.2,0c0.8,0.6,1.7,2.2,3.7,3.8c3,2.3,6.9,3.8,8.4,4.4c2,0.8,6.8,1.6,13.5,2.3
		c3.9,0.4,7.6-0.7,11.2-2.8c3.6-2.1,5.5-2.7,10.7-3.4c3.2-0.4,11,0.5,14.8-0.7s11.5-1,15-1.1c5.1-0.2,7.6-2.7,16.5-5.4
		c8.9-2.7,17.5,1.5,20,2.4c2.6,0.8,7.1,0.3,8.9,0.7C249.3,116.3,249.6,116.4,249.8,116.6"/>
	<path id="Top_Road_2_" class="st11" d="M146.5,98.1c2,1.6,4.9,1.2,6.5-0.8c0.2-0.3,0.4-0.5,0.5-0.8c2.3-0.2,5.2-0.5,8.1-0.6h1.3
		c5.7-0.2,11.5-0.4,15.3-0.6c4.7-0.2,26.6,0.4,47.4,1c19,0.6,36.1,6.6,42.6,9.7c3.7,1.8,5.8,4.4,6.8,5.8c-2.3,1.2-4.6,2.2-6.8,2.9
		c-9.6,3-10.3,3.1-15.4,4.2l-1.3,0.3c-16.6,3.3-18,5.7-18,7.6h4.9c0,0.8-0.4,1.3-0.5,1.4c0.1-0.1,2.1-1.7,14.5-4.2l1.3-0.3
		c5.3-1,6.1-1.2,15.9-4.3c8-2.5,17.6-9,22.3-12.3c1.8,0.6,3.9,0.1,5.2-1.5c1.6-2,1.2-4.9-0.8-6.5s-4.9-1.2-6.5,0.8
		c-0.8,1-1.1,2.2-0.9,3.3c-2.3,1.6-5.8,4-9.6,6.3c-0.8-1.2-2.4-3.4-5-5.4c-1.1-0.9-2.5-1.7-4-2.5c-6.7-3.3-24.7-9.6-44.6-10.2
		c-21.9-0.6-42.9-1.2-47.8-1c-0.3,0-0.6,0-0.9,0c-0.4-3.7-0.9-11.3,0.3-16c0.1-0.3,0.2-0.6,0.3-1c3,1.2,10.9,4,18.3,3.6
		c2.1-0.1,5.5-0.3,9.4-0.5c8.8-0.5,20.9-1.3,24.9-1.2c1.4,0,2.8,0,4.1,0c9.7,0,18,0.1,41.3,4.9c26.3,5.5,47.4,17.4,57.5,26
		c3.7,3.1,6.8,8,9.6,12.8c-3.3,1.8-12.3,6-17.9,6c-7.2,0-16.6,3.8-29.6,12.1c-8.2,5.2-13.1,5.1-13.1,5.1l0.1,3.8l0.1,4
		c0.7,0,6.7-1.2,16.3-7.4c11.6-7.4,20.4-11.1,26.1-11.1c8.2,0,19.7-6,21.2-6.8c2.8,4.9,5.4,9.1,8.4,11.2c5.7,3.9,12.9,3.4,18.7,3
		c1.5-0.1,2.9-0.2,4.2-0.2c4.2-0.1,11.2,0.4,15.2,0.7c0.3,0.6,0.7,1.2,1.3,1.7c2,1.6,4.9,1.2,6.5-0.8s1.2-4.9-0.8-6.5
		c-2-1.5-4.8-1.2-6.4,0.7c-4-0.3-11.3-0.8-15.9-0.8c-1.4,0-2.9,0.1-4.5,0.2c-5.3,0.4-11.3,0.8-15.6-2.2c-2.5-1.8-5.2-6.5-8-11.6
		c-3.5-6.3-7.5-13.4-12.8-17.9c-10.5-8.9-32.5-21.3-59.7-27c-23.7-5-32.3-5-42.2-5c-1.3,0-2.7,0-4.1,0c-4.2-0.1-15.9,0.7-25.3,1.2
		c-3.9,0.2-7.3,0.4-9.3,0.5c-6.5,0.3-13.8-2.3-16.3-3.3c3.2-6.7,9.4-13.1,19.2-14.9c15.4-2.9,19.2-3.4,32.1-3.7
		c6.2-0.1,10.3,1.5,12.7,3.1c-0.1,1.5,0.5,3,1.8,4c2,1.6,4.9,1.2,6.5-0.8s1.2-4.9-0.8-6.5c-1.3-1-3-1.2-4.5-0.7
		c-2.5-1.6-6.2-3.3-11.4-3.9c0-1,0-2.1,0-2.8c0-2.1-2.1-3.1-4.7-4.3c-0.8-0.4-1.7-0.8-2.7-1.4c-3.9-2.1-5.7-6.7-3.9-9.9
		c0.6-1.1,1.2-2.3,1.9-3.6c1.7-3.2,3.6-6.9,5.7-10.3c2.6-4.3,8-3.8,10.8-2.5c4.8,2.3,8.5,4.6,10.6,6l-1.1,1.5l4.1,3.2l1-1.3l1.8,1.4
		l-1,1.3l7.6,5.9l4-5.1l-7.6-5.9l-1,1.3l-1.8-1.4l1-1.3l-4.1-3.2l-1.5,1.9c-2.1-1.4-5.9-3.9-11-6.3c-3.5-1.6-10.2-2.1-13.6,3.3
		c-2.1,3.5-4.1,7.2-5.8,10.5c-0.7,1.3-1.3,2.5-1.9,3.6c-2.4,4.4-0.2,10.2,4.8,12.9c1,0.5,2,1,2.8,1.4c1.9,0.9,3.5,1.7,3.5,2.4
		c0,0.7,0,1.7,0,2.6c-0.7,0-1.5,0-2.3,0c-13.2,0.3-17.4,0.9-32.9,3.8c-14.7,3.1-22.5,14.6-24.9,24.4c-1.3,5.4-0.8,13.3-0.4,17.4
		c-2.9,0.1-6.2,0.2-9.5,0.3h-1.3c-3.1,0.1-6.2,0.4-8.5,0.6c-0.2-0.3-0.5-0.6-0.8-0.8c-2-1.6-4.9-1.2-6.5,0.8
		C144.2,93.7,144.5,96.6,146.5,98.1"/>
	<polygon id="Outline2_2_" class="st15" points="239.8,176 239.7,176.1 256.1,177.6 256.3,177.5 260.8,158.1 266.9,159.7 
		267.1,159.6 273.5,145.5 273.4,145.3 232.2,126.1 232.1,126.1 183.7,153.5 183.7,153.6 177.7,168.8 177.7,168.8 179.8,185.9 
		179.9,186 187.3,188.2 187.3,188.2 194.8,189.5 194.8,189.5 202,189.9 202,189.9 208.9,189.1 214.7,188.4 220.4,188.2 225.9,188.3 
		231.5,188.9 236.9,190.3 237,190.3 237.1,190.2 239.9,176 239.8,176 239.7,176.1 239.8,176 239.6,175.9 236.8,190 231.6,188.6 
		231.6,188.6 226,188 225.9,188 220.4,187.9 220.4,187.9 214.6,188.1 214.6,188.1 208.8,188.8 202,189.6 194.8,189.2 187.4,187.9 
		180.1,185.7 178,168.8 183.9,153.8 232.1,126.4 273.1,145.5 266.9,159.3 260.7,157.7 260.6,157.8 260.5,157.9 256,177.3 
		239.8,175.8 239.6,175.9 	"/>
	<path id="Outline" class="st16" d="M90.7,213.6l2.5-10.7c-0.7-0.3-2.1-1.1-2.5-1.2c-0.2,0.3-0.5,2.3-0.9,4.1
		c-0.8,3.9-1.3,6.8-1.8,7.1c-0.1,0-0.1,0-0.2,0c-0.1,0-0.2,0-0.2,0c0,0-0.1,0-0.2-0.1c-4.2-1-9.7-2.4-12.5-3.5
		c-4.4-1.7-5.1-2.1-5.1-2.1l-0.1-0.1l0-0.1c0.2-0.7,2.4-6.7,2.6-7c0.2-0.3,16.1-20.7,16.8-21.6l0,0l3.7-0.5l0,0l3.5,0.8l6,2.4
		l14.9-6.5l-14.8-6.2l-4.2-1.9l0.1-0.1l26.2-34l0.2,0.2l-26.1,33.9l4,1.7l15.4,6.4l-0.3,0.1l-15.2,6.6l0,0l-6-2.4l-3.5-0.8l-3.5,0.5
		c-0.8,1-16.6,21.2-16.8,21.6c-0.1,0.2-1.6,4.2-2.5,6.9c0.3,0.1,1.4,0.7,5,2c2.8,1.1,8.5,2.5,12.5,3.5c0.1,0,0.2,0,0.2,0
		c0,0,0.1,0,0.2,0.1c0.4-0.2,1.2-4.4,1.7-6.9c0.6-3.2,0.8-4.1,1-4.3l0,0l0.1,0c0.4,0.1,2.6,1.3,2.7,1.3l0.1,0l0,0.1l-2.5,10.4
		l10.8-0.7l18-0.8l14.5-3.5c0,0,3.7-1.7,4.2-2.3c0.5-0.5,0.2-0.9,0.2-0.9l0,0l-1.7-6.8l-6.2-2.5l0,0l-1.3-2.9
		c-0.2-0.1-0.6-0.5-0.5-0.7c0.1-0.2,0.4-0.9,12.7,3.1c15.6,5.1,34.7-8.8,35.8-9.6l-1.3-15.6l0.2,0l1.3,15.8l-0.1,0
		c-0.2,0.2-19.9,15-36.1,9.7c-11-3.6-12.2-3.4-12.4-3.2c0,0.1,0.2,0.3,0.5,0.4l0,0l1.3,2.9l6.2,2.5l0,0.1l1.7,6.9
		c0.1,0.1,0.4,0.6-0.2,1.2c-0.6,0.6-4.2,2.3-4.3,2.3l-14.5,3.5l-18,0.8L90.7,213.6z"/>
	<g id="Roads_2_">
		<path class="st13" d="M346.5,268.9c-1.6-3.4-3.3-6.9-4.7-10.5c-2-5.1-5-10.3-8.1-15c-3-4.5-7.2-8.6-11.8-12.2
			c-4.7-3.6-9.8-6.7-14.7-9.1c-0.4-0.2-0.8-0.4-1.2-0.6c-1.4-1-2.3-2.2-2-4c0.4-1.8,1.5-3.2,3-4.3c0.9-0.4,1.8-0.7,2.7-0.9l27.9-9.1
			c0.7-0.2,1.4-0.4,2.1-0.7c0.7-0.2,1.4-0.4,2.1-0.6c0.7-0.2,1.4-0.4,2.1-0.6c0.7-0.2,1.4-0.3,2.2-0.5c0.3-0.1,0.7-0.2,1-0.2
			c0.3-0.1,0.7-0.1,1-0.2l2.1-0.4l4-0.8l8-1.6l4-0.8l4-0.8l4-0.8l4-0.8l4-0.8l4-0.8l1.9-0.4c0.4-0.1,0.9-0.2,1.3-0.2
			c0.4-0.1,0.9-0.1,1.3-0.2c0.8-0.1,1.7-0.2,2.5-0.3s1.7-0.1,2.5-0.1c0.6,0,1.3,0,1.9,0s1.3,0,1.9,0.1l0.9,0.1l4.1,0.3l9.8,0.5
			l12.2,0.9c4.4,0.3,13,2.4,13,2.4c4.2,1.3,8.6,2.8,12.7,4.8c2.9,1.5,6.5,3.9,10.7,6.9c2.3-1.6,4.3-3.5,6.3-5.4
			c-5.6-4.3-11.1-8.3-14.3-9.6c-7-2.8-8.2-3.1-15.4-5.3h-0.1h-0.1c0,0-8.1-1.3-12.9-1.6l-14.6-0.9v0.1l-11.9-0.7
			c-2.2-0.1-4.3-0.1-6.5,0s-4.3,0.4-6.4,0.8l-40,7.8c-1.9,0.4-3.8,0.8-5.7,1.3c-1.9,0.5-3.8,1-5.6,1.6l-27.9,9
			c-2.5,0.8-4.9,2.1-6.9,3.8c-1.7,1.5-2.4,3.2-3.8,4.9c-1.1,1.3-2.4,2.4-3.9,3.1c-0.2,0.1-0.4,0.2-0.6,0.3c-4.5-1.4-8.9-2.9-13-5
			c-0.6-0.3-1.2-0.7-1.6-1c-1.9-1.6-1.8-2.7-0.7-4.2c1.5-1.9,4.9-3.8,7.8-5c1.3-0.3,2.6-0.7,4-1c7.3-1.8,14.6-3.5,21.9-5.3
			c8.3-2,16.5-4,24.8-6c5.5-1.3,11-2.7,16.5-4l0.3-0.1c14.9-3.6,30.4-8.4,45.7-8.2c10.3,0.1,20.6,0.4,31,0.6
			c14.5,0.4,29,0.8,43.5,1.2c14.9,0.4,29.9,0.9,44.8,1.3c11.7,0.4,23.4,0.7,35.1,1.1c4.7,0.1,9.4,0.3,14.2,0.4l-11.9-9.3
			c-5-0.2-9.9-0.3-14.9-0.5c-12.1-0.4-24.2-0.8-36.3-1.2l-45.3-1.4c-13.9-0.4-27.8-0.9-41.7-1.3c-8.5-0.3-17.1-1-25.6-0.8
			c-7.7,0.1-15.6,2.9-23.1,4.7c-6.3,1.5-12.6,3-19,4.5c-0.2,0.1-0.5,0.1-0.7,0.2c-0.1,0-3.3,0.9-4.7,1.3c-6.7,1.6-13.6,3-20.4,4.6
			c-8.3,2-16.7,4-25,6.1l-17.5,4.2c-1.2,0.3-2.2,0.6-3.2,0.8c-2.8,0.5-5.8,0.8-8.8,1.2c-5.2,0.7-10.3,1.3-15.3,1.1
			c-6.4-0.2-12.9-0.5-19.3-0.8c-5-0.2-10-0.3-15.1,0.1c-5,0.4-9.7,1.4-14.4,2.3c-7.6,1.5-15.1,3-22.7,4.5c-4.4,0.9-8.9,1.8-13.4,3
			c-5.1,1.4-10.2,2.9-15.3,4.7c-6.1,2.2-12.2,4.4-18.3,6.5c-4.4,1.6-8.7,3.1-13.1,4.4c-4.6,1.4-9.3,2.5-14.1,3.4
			c-4.7,0.9-9.5,1.5-14.4,2c-3.1,0.3-6.3,0.4-9.6,0.5h-4.9c-9.1,0-17-0.5-25.7-2.6c-4.5-1.1-8.8-2.5-12.9-4.6
			c-3.9-1.8-7.6-4.2-11.1-6.9c-0.5-0.4-1-0.8-1.5-1.2c-8.7-7.1-17.3-14.3-26-21.4c-7.9-6.5-45.5-36.1-83.3-65.9l-5.8,7.4
			C-49.6,161-12.1,190.8-4.5,197c8.7,7.1,17.3,14.3,26,21.4c0.6,0.5,1.1,0.9,1.7,1.3c3.7,2.8,7.6,5.4,11.7,7.4
			c4.4,2.3,9,3.9,13.6,5.2c4.9,1.3,9.5,2.6,14.8,3.2c7,0.8,14.8,1.3,22,0.3c4.7-0.6,9.8-0.5,15.1-1.2c5-0.7,10.1-1.5,15.1-2.7
			s9.9-2.5,14.7-4.1c5.7-1.9,11.4-4,17-6.1c4.9-1.8,9.8-3.6,14.7-5.1c2.4-0.8,4.9-1.5,7.3-2.1c2.6-0.7,5-1.4,7.4-1.8
			c2.1-0.4,4-0.9,5.9-1.3c2.9-0.6,5.9-1.2,8.8-1.7c6.7-1.3,13.5-2.7,20.2-4c2.2-0.4,4.3-0.8,6.5-1c2.5-0.2,5.1-0.3,7.8-0.5
			c1.8-0.1,3.9,0.1,6,0.1c3.9,0.2,7.8,0.3,11.8,0.5c0.7,0,1.3,0,2,0c3.6,0.6,7.2,0.9,10.5,1.9c2.9,0.9,5.2,2.2,7.2,3.8
			c2,1.5,3.8,3.4,5.9,5.6c0.6,0.6,1.2,1.2,1.9,1.7c0.4,0.3,0.7,0.5,1.1,0.8c2.5,1.6,5.3,3.1,8.1,4.2c8.3,3.2,16.6,6.1,24.9,9
			c4,1.4,7.7,3.4,11,5.9c0.3,0.2,0.7,0.5,1,0.8c3.2,2.5,5.8,5.2,8.3,8.3c2.8,3.6,4.9,7.6,6.8,11.8c2.6,5.8,5.1,11.6,7.8,17.4
			c1.7,3.7,2.7,7.9,3.2,12c0.3,2.7,0.3,5.5,0.1,8.3"/>
		<path class="st13" d="M265.5,197.6c-4.4,0.2-7.6-1.8-7.6-1.8s2.4-0.2,2.7-1.6c0.2-0.9,1-5.5,1.5-8s-0.9-4.1-2.7-4.6
			c-2.8-0.8-20.7-5.4-28.3-7c-6.7-1.4-25.3,1.1-33.6,1.2c-9.8,0.1-18.8-6.1-18.8-6.1l-2.4,0.3l-3.9-3.7c0,0,1.6-2.4,2.7-3.9
			c1.1-1.5,2.4-3.7,2.4-3.7l7.4-7l-0.5-1.5l15.2-15.9c0,0,10.9-7,27.8-8.5c15.3-1.3,27.8,3.8,31.2,5.6c4.5,2.3,9.8,7.3,13.1,8.9
			c5.5,2.6,10.4,2.1,10.4,2.1l0.3,7.8l-1.5,0.7c0,0-0.9,6.1-2.3,10.5c-1.9,5.9-3.5,6.7-6.1,14c-3.2,9.2-5,16.8-3.5,18.5
			c0.7,0.7,3.4,0.6,3.4,0.6S270,197.4,265.5,197.6 M262.5,177.2c1.2,0.4,1.6-0.4,1.6-0.4s2.3-4.4,4-7.4s3.7-6.8,4.8-10.6
			c1.1-3.8,2-9.4,2-9.4s-4.1-0.8-7.3-2.7c-3.2-1.8-8.5-6.2-13.1-7.9c-4.6-1.6-15.7-5.9-26.9-4.2c-11.2,1.7-18,4.4-20.6,6.6
			c-2.6,2.1-7.7,7.3-7.7,7.3l-0.2,4.7c0,0,2,0.8,6.2,0.1s12.2-2.6,22.6-1.9c7.4,0.5,10.9,1.2,13,1.8c3.8,1,5.7-2,8.6-1.3
			c3.4,0.9,2.6,3.8,6,4.7c3.5,0.9,5.2,1.3,5.2,1.3l-1.1,4.9c0,0-22-5.6-26.8-6.1c-6.8-0.6-15.8-0.8-21.3,0.5
			c-5.5,1.2-10.3,1.9-13.5,1.1c-3.1-0.8-5.7-2.4-5.7-2.4l-1.2,0.1l-5.9,5.6l-0.4,5.7c0,0,5.5,2.8,11.8,3.2c6.4,0.4,20.9-1.8,29-1.5
			c8.1,0.2,14.9,2.6,21.7,4.3C254.1,175.1,261.2,176.8,262.5,177.2"/>
		<path class="st13" d="M184.9,150.5c0,0-4.6-3.3-13-4.3c-3.3-0.4-6.8-0.3-10.5-0.2c-3.7,0.1-7.5,0.2-11.3-0.2
			c-8-0.9-16-4.4-20.5-7.5c-4.8-3.3-5.3-4.4-5.5-4.7l4.4-2.4c0,0,0-0.1-0.2-0.2c0,0,0.8,0.9,4.2,3.3c3.8,2.7,11.1,5.9,18.1,6.7
			c3.5,0.4,7.1,0.3,10.6,0.2c3.7-0.1,7.6-0.2,11.3,0.3c9.8,1.3,15.1,5.1,15.4,5.3L184.9,150.5l1.5-2L184.9,150.5z"/>
		<path class="st13" d="M151.5,165.5c-1.1,0-2.1,0-3.1-0.1c-5.8-0.4-10.4-2-14.4-3.3c-1.4-0.5-2.8-0.9-4.1-1.3
			c-7.4-2.1-16.2-1.5-16.3-1.5l-0.4-5c0.4,0,9.8-0.7,18.1,1.7c1.5,0.4,2.9,0.9,4.3,1.4c3.9,1.3,8,2.7,13.1,3.1
			c5.6,0.4,13.9-0.6,18.3-1.1c1.4-0.2,2.4-0.3,2.9-0.3c4.4-0.3,6.8,2.3,7.1,2.6l-3.7,3.3l1.9-1.7l-1.8,1.7c0,0-1.1-1.1-3.1-1
			c-0.4,0-1.4,0.1-2.6,0.3C163.8,164.7,157.1,165.5,151.5,165.5z"/>
		<path class="st13" d="M94.9,197.5l-4.1-2.9c0.3-0.4,6.3-8.9,12-13.9c6-5.3,13.9-7.2,23.7-5.7c3.4,0.6,6.5,1.3,9.2,2
			c8.2,2,14.2,3.4,24.4-1c8.7-3.7,12.7-10,12.8-10l4.2,2.7c-0.2,0.3-4.9,7.7-15,12c-11.7,5.1-19.1,3.3-27.5,1.2
			c-2.8-0.7-5.6-1.4-8.8-1.9c-8.2-1.3-14.7,0.2-19.5,4.5C100.9,189.1,95,197.5,94.9,197.5z"/>
		<path class="st13" d="M104.8,202.2c-7.3,0-11.8-1.3-12.1-1.4l1.4-4.8c0.1,0,7.7,2.2,18.7,0.6c11.7-1.6,16.8-3.6,16.8-3.6l1.9,4.6
			c-0.2,0.1-5.6,2.2-18,4C110.3,202,107.4,202.2,104.8,202.2z"/>
		<path class="st13" d="M88.9,194.4c1.8-2.3,5.2-2.8,7.5-0.9c2.3,1.8,2.8,5.2,0.9,7.5c-1.8,2.3-5.2,2.8-7.5,0.9
			C87.5,200.1,87.1,196.8,88.9,194.4"/>
	</g>
	<g id="Layer_3_1_">
		<g class="st17">
			<path class="st18" d="M103.5,223.7c-0.2,0-0.4,0-0.5,0l0.2-2c0.4,0,0.9,0,1.4-0.2c0.8-0.2,1.1-0.6,1.6-1.1
				c0.2-0.2,0.3-0.3,0.5-0.5l1.3,1.5c-0.2,0.1-0.3,0.3-0.4,0.4c-0.5,0.6-1.2,1.3-2.5,1.6C104.6,223.6,104.1,223.7,103.5,223.7z
				 M79.4,222.5c-0.2,0-0.4,0-0.6-0.1c-0.4,0-1,0-2,0l0.1-2c0.4,0,0.8,0,1.1,0V220l1.3,0.5c0,0,0,0,0.1,0c0.3,0,0.9-0.1,1.9-0.6
				l0.9,1.8C80.9,222.3,80,222.5,79.4,222.5z M111.8,222.3c-0.8,0-1.2-0.5-1.4-0.7l1.5-1.3c0,0-0.1,0-0.1,0c0.3-0.1,1.3-0.8,2.8-2.1
				l1.3,1.5C113.5,221.7,112.6,222.3,111.8,222.3z M71.8,222.1c-1.9-0.2-3.6-0.4-5-0.6l0.3-2c1.4,0.2,3,0.4,4.9,0.6L71.8,222.1z
				 M98.2,221.2c-0.3-0.2-0.5-0.4-0.8-0.6c-0.5-0.4-1.8-1.2-3.4-2l0.9-1.8c1.5,0.8,2.9,1.6,3.6,2.2c0.2,0.2,0.5,0.3,0.7,0.5
				L98.2,221.2z M61.7,219.9c-1.8-1.1-2.8-2.7-2.8-4.6c0-0.2,0-0.3,0-0.5l2,0.2c0,0.1,0,0.2,0,0.3c0,1.2,0.6,2.1,1.9,2.8L61.7,219.9
				z M86.3,218.4l-1.4-1.5c1.2-1.1,2.4-2.2,3.6-2.3c0.5,0,0.9,0,1.6,0.2l-0.5,1.9c-0.4-0.1-0.7-0.1-0.8-0.1
				C88.1,216.7,86.9,217.8,86.3,218.4z M119.7,216.9l-0.9-1.8c1.7-0.9,3.5-1.4,5.2-1.5l0.1,2C122.6,215.7,121.2,216.1,119.7,216.9z
				 M129.1,215.9l-0.3-2c0.9-0.1,2-0.4,3.1-0.7c0.3-0.1,0.8-0.3,1.2-0.6l1,1.7c-0.6,0.4-1.2,0.6-1.7,0.8
				C131.2,215.5,130.1,215.8,129.1,215.9z M138.2,211.1l-1.4-1.4c1.2-1.1,2.3-2.4,3.3-3.6l1.6,1.2
				C140.7,208.5,139.4,209.9,138.2,211.1z M62.3,210.5l-1.9-0.6l0.5-1.7l0.3-3l2,0.2l-0.3,3.3L62.3,210.5z M144.9,203.8l-1.2-1.6
				c1.2-1,2.8-1.9,4.4-2.8l0.9,1.8C147.4,202,146,202.9,144.9,203.8z M61.6,200.4l-0.1-5l2-0.1l0.1,5L61.6,200.4z M153.4,199.4
				l-0.6-1.9c0.2-0.1,0.4-0.1,0.6-0.2c0.6-0.2,1.5-0.4,2.6-0.8l1.6-0.5l0.6,1.9l-1.6,0.5c-1.2,0.4-2.1,0.7-2.7,0.8
				C153.7,199.3,153.5,199.4,153.4,199.4z M162.9,196.5l-0.5-1.9c1.6-0.5,3.3-0.9,4.9-1.3l0.5,1.9
				C166.1,195.7,164.5,196.1,162.9,196.5z M256.9,194.7c-1.9,0-3.3,0-3.3,0l-0.2,0l-1.7-0.3l0.4-2l1.6,0.3c0.3,0,1.6,0,3.2,0
				L256.9,194.7z M262,194.5l-0.4-2c1.1-0.2,2.7-0.6,4.8-1.1l0.5,1.9C264.8,193.9,263.2,194.3,262,194.5z M172.5,194.2l-0.4-2
				c1.7-0.3,3.3-0.6,5-0.9l0.3,2C175.8,193.6,174.1,193.9,172.5,194.2z M246.8,193.4l-1.3-0.3c-0.4,0-1.6-0.1-3.5-0.1l0.1-2
				c2.1,0.1,3.4,0.1,3.5,0.1l0.2,0l1.4,0.3L246.8,193.4z M237,192.9c-1.5-0.1-3.2-0.1-5-0.2l0.1-2c1.8,0.1,3.5,0.1,5,0.2L237,192.9z
				 M182.3,192.7l-0.2-2c1.7-0.2,3.4-0.3,5-0.4l0.1,2C185.6,192.4,183.9,192.5,182.3,192.7z M227,192.6c-1.6,0-3.3-0.1-5-0.1l0.1-2
				c1.7,0,3.4,0.1,5,0.1L227,192.6z M217.1,192.3c-1.7,0-3.3-0.1-5-0.1l0-2c1.7,0,3.3,0.1,5,0.1L217.1,192.3z M207.1,192.2
				c-1.7,0-3.4,0-5-0.1l0-2c1.6,0,3.3,0,5,0.1L207.1,192.2z M192.1,192.1l0-2l0.4,0c1.4,0,2.9,0,4.4,0h0.2v2h-0.2c-1.5,0-3,0-4.4,0
				L192.1,192.1z M271.8,192l-0.5-1.9c1.6-0.5,3.3-0.9,4.8-1.4l0.6,1.9C275.1,191.1,273.5,191.5,271.8,192z M63.5,190.4l-2-0.1
				l0.1-5l2,0.1L63.5,190.4z M281.4,189.2l-0.6-1.9c1.5-0.4,2.1-0.6,2.2-0.7c0.1,0,0.3-0.1,2.6-0.8l0.6,1.9
				c-1.6,0.5-2.2,0.7-2.3,0.7C283.7,188.5,283.2,188.7,281.4,189.2z M291,186.3l-0.6-1.9c1.5-0.4,3.2-0.9,4.8-1.4l0.5,1.9
				C294.2,185.4,292.5,185.9,291,186.3z M300.6,183.7l-0.5-1.9c2-0.5,3.7-0.9,4.9-1.1l0.4,2C304.2,182.8,302.6,183.2,300.6,183.7z
				 M312.5,182.4c-0.7,0-1.4,0-2.1-0.1l-0.2,0l0.1-2l0.2,0c1.4,0.1,3,0.1,4.5-0.1l0.3,2C314.3,182.3,313.4,182.4,312.5,182.4z
				 M64.3,181.2l-1.7-1.1l2.7-4.2L67,177L64.3,181.2z M320.3,181l-0.6-1.9c0.5-0.2,0.9-0.3,1.5-0.5c0.9-0.3,2-0.7,3.2-1.1l0.7,1.9
				c-1.2,0.4-2.3,0.8-3.2,1.1C321.3,180.6,320.8,180.8,320.3,181z M329.8,177.7l-0.6-1.9c1.5-0.5,3.1-1,4.8-1.5l0.6,1.9
				C332.9,176.7,331.3,177.2,329.8,177.7z M339.3,174.7l-0.6-1.9c1.6-0.5,3.2-1,4.8-1.4l0.5,1.9
				C342.5,173.7,340.8,174.2,339.3,174.7z M69.5,172.6l-1.8-1l1.4-2.4l0.8-1.9l1.8,0.8l-0.9,2.1L69.5,172.6z M348.8,172l-0.5-1.9
				c1.8-0.4,3.4-0.8,4.9-1.1l0.4,2C352.2,171.2,350.6,171.6,348.8,172z M358.5,170.2l-0.2-2c1.6-0.2,3.3-0.3,5-0.5l0.2,2
				C361.8,169.8,360.1,170,358.5,170.2z M368.4,169.3l-0.1-2c1.7-0.1,3.4-0.2,5-0.3l0.1,2C371.7,169.1,370.1,169.2,368.4,169.3z
				 M378.3,168.8l-0.1-2c1.8-0.1,3.4-0.1,5-0.2l0.1,2C381.8,168.7,380.1,168.8,378.3,168.8z M388.3,168.5l0-2c1.5,0,3.3-0.1,4.9-0.1
				l0.1,2C391.6,168.5,389.8,168.5,388.3,168.5z M398.4,167.8l-0.4-2c1.8-0.3,3.2-0.8,4.4-1.5l1,1.8
				C402,166.9,400.4,167.4,398.4,167.8z M73.7,163.4l-1.8-0.8l1-2.3l1.1-2.2l1.8,0.9l-1.1,2.2L73.7,163.4z M407.5,162.8l-1.4-1.4
				l1-1c0.8-0.8,1.7-1.7,2.6-2.5l1.3,1.5c-0.9,0.8-1.7,1.6-2.6,2.5L407.5,162.8z M414.8,156.4l-1.1-1.7c1.6-1,3.2-1.8,4.8-2.2
				l0.5,1.9C417.6,154.8,416.2,155.5,414.8,156.4z M78,154.5l-1.8-0.9l2.2-4.5l1.8,0.9L78,154.5z M433.9,153.9l-0.6-1.9
				c0.9-0.3,1.7-0.8,2.4-1.7c0.2-0.3,0.4-0.6,0.6-1l1.8,0.9c-0.3,0.5-0.5,1-0.8,1.3C436.4,152.7,435.2,153.5,433.9,153.9z
				 M423.8,153.8l-0.1-2c1.8-0.1,3.7-0.1,5.1-0.1l-0.1,2C427.3,153.7,425.5,153.7,423.8,153.8z M82.4,145.5l-1.4-0.7l-0.4,0l0-0.2
				l0,0l-0.4-4.4l2-0.2l0.5,4.9L82.4,145.5z M439.7,145.2l-2-0.4c0.2-0.9,0.3-1.8,0.3-2.6c0-1-0.2-1.5-0.3-1.7l1.8-1
				c0.3,0.6,0.5,1.5,0.5,2.6C440.1,143.1,439.9,144.1,439.7,145.2z M434.1,138.2c-1.9-1-3.7-1.7-4-1.8c-0.2,0-0.3-0.1-0.5-0.1
				l0.6-1.4l0-0.5c0,0,0.1,0,0.1,0l0,0l0,0c1.1,0.2,4.6,2,4.7,2L434.1,138.2z M81.7,135.5l-1.9-0.6l1.4-4.8l1.9,0.6L81.7,135.5z
				 M425.1,133.8c-2.1-1.3-3.5-2.3-4.2-3.2l1.5-1.3c0.6,0.7,1.9,1.7,3.8,2.8L425.1,133.8z M417.4,127.1c-1-0.8-2.4-2.1-3.8-3
				l1.1-1.7c1.5,1,3.1,2.3,4.1,3.2L417.4,127.1z M84.6,125.9l-1.9-0.6l1.2-3.8l0.6-1l1.7,1l-0.5,0.9L84.6,125.9z M408.7,123
				c-1.1,0-2.6-0.1-4.5-1.2l1-1.7c1.8,1.1,3.1,1,4.2,0.9l0.1,2C409.2,123,409,123,408.7,123z M400.2,118.3c-0.5-0.6-1.1-1.3-1.6-2
				c-0.4-0.6-1-1.2-1.5-1.9l1.5-1.3c0.6,0.7,1.2,1.4,1.6,2c0.5,0.7,1,1.3,1.5,1.9L400.2,118.3z M88.6,117.1l-1.7-1l2.4-4.3l1.7,1
				L88.6,117.1z M393.6,111c-1.1-1-2.4-2.1-3.7-3.2l1.3-1.6c1.4,1.1,2.7,2.2,3.8,3.3L393.6,111z M93.3,108.2l-1.8-0.8l2-4.6l1.8,0.8
				L93.3,108.2z M385.9,104.7c-1.3-1-2.6-1.9-4-2.9l1.1-1.6c1.4,1,2.8,2,4.1,2.9L385.9,104.7z M97.3,99.1l-1.8-0.8l2-4.6l1.8,0.8
				L97.3,99.1z M377.8,99c-0.5-0.3-0.8-0.5-0.9-0.6l0,0c-0.2-0.1-1.5-0.9-3.4-2l1-1.7c1.9,1.2,3.3,1.9,3.3,1.9l0.5,0.3
				c0.1,0.1,0.3,0.2,0.5,0.3L377.8,99z M369.3,93.8c-1.7-1.1-3-2.1-4.1-3l1.3-1.6c1,0.8,2.4,1.8,4,2.9L369.3,93.8z M96.9,90.1
				l-0.1-0.8l1.2-4.4l1.9,0.5l-1.1,4l0,0.4L96.9,90.1z M361.5,87.2c-0.9-0.9-2.1-1.9-3.7-3.2l1.2-1.6c1.6,1.3,2.9,2.4,3.9,3.3
				L361.5,87.2z M116.3,84.2l-0.3-0.1c0,0-0.7-0.1-1.7-0.5l0.6-1.9c0.6,0.2,1.1,0.3,1.3,0.4c0.6-0.2,1.5-0.6,2.8-1l0.7,1.9
				c-1.7,0.6-3,1.1-3.1,1.1L116.3,84.2z M134.1,82c-0.3,0-0.6,0-0.8,0l0.1-2c0.9,0.1,2.8,0.1,4.2-0.8l1,1.7
				C137.1,81.8,135.3,82,134.1,82z M109.5,81.7c-1.7-1-3.1-2.1-4.1-3.4l1.6-1.3c0.9,1.1,2.1,2.1,3.5,2.9L109.5,81.7z M124.3,81.3
				l-0.7-1.9c1.5-0.5,2.7-0.9,3.4-1.1c0.6-0.2,1.2-0.2,1.8-0.2l-0.1,2c-0.4,0-0.7,0-1.1,0.1C127,80.5,125.9,80.8,124.3,81.3z
				 M353.8,81.1c-1.8-1.3-3.4-2.3-3.8-2.6l-0.2-0.6l-0.2,0.1l-0.1-0.3l0.2-0.1l-0.1-0.3l0.4,0.1l0.9-0.4l0.2-0.3
				c0.1,0,0.1,0.1,0.2,0.1l0,0l0,0.1c0.7,0.5,2,1.3,3.6,2.5L353.8,81.1z M101.3,80.6l-1.9-0.5l0.8-2.8l0,0c0.2-0.8,1-1.9,1.4-2.3
				l1.3,1.5c-0.4,0.4-0.7,1.1-0.8,1.3L101.3,80.6z M141.8,76.1l-2-0.2c0-0.2,0-0.4,0-0.7c0-1-0.2-2.3-0.6-3.9l1.9-0.5
				c0.4,1.8,0.6,3.2,0.6,4.4C141.8,75.5,141.8,75.8,141.8,76.1z M347.3,73.5c-0.9-1.5-1.9-2.8-2.8-3.9l1.5-1.3
				c1,1.1,2.1,2.6,3.1,4.2L347.3,73.5z M340.8,66.8c-1.6-0.8-3.3-1.3-4.5-1.8l0.6-1.9c1.3,0.4,3.1,1,4.8,1.9L340.8,66.8z
				 M137.9,66.6c-0.5-1.4-1-3-1.7-4.7l1.9-0.7c0.6,1.7,1.2,3.3,1.7,4.8L137.9,66.6z M331.5,63.5c-2-0.7-3.5-1.4-4.7-2.3l1.1-1.6
				c1.1,0.7,2.4,1.4,4.2,2L331.5,63.5z M322.8,58.3c-1.2-0.9-2.6-1.9-4-3l1.2-1.6c1.5,1.1,2.8,2.1,4,3L322.8,58.3z M134.4,57.3
				c-0.7-1.8-1.4-3.4-2-4.6l1.8-0.8c0.5,1.2,1.2,2.8,2,4.6L134.4,57.3z M314.7,52.4l-4-3l1.2-1.6l4,3L314.7,52.4z M134,47.9
				l-1.9-0.6c0.5-1.6,1.1-3.2,1.9-4.8l1.8,0.8C135.1,44.9,134.5,46.4,134,47.9z M306.6,46.5l-4-2.9l1.2-1.6l4,2.9L306.6,46.5z
				 M299.1,39.5c-0.7-1.5-1.5-2.9-2.4-4.3l1.7-1.1c0.9,1.4,1.7,2.9,2.5,4.4L299.1,39.5z M138.1,39.1l-1.7-1c0.9-1.4,1.9-2.9,2.9-4.2
				l1.6,1.2C139.9,36.4,139,37.7,138.1,39.1z M144.2,31.6l-1.3-1.5c1.2-1,2.6-2,4.2-3l1,1.7C146.6,29.7,145.3,30.7,144.2,31.6z
				 M293.9,31.2c-0.9-1.1-1.8-2-2.7-2.7c-0.2-0.2-0.4-0.3-0.7-0.5l1.2-1.6c0.3,0.2,0.5,0.4,0.8,0.6c1,0.8,2,1.8,3,3L293.9,31.2z
				 M202.2,29.3c-0.2-0.1-0.5-0.2-0.7-0.4c-1.1-0.7-2.2-1.7-3.5-3l1.4-1.4c1.2,1.2,2.2,2.1,3.1,2.7c0.2,0.1,0.3,0.2,0.5,0.2
				L202.2,29.3z M207.8,28.8l-0.9-1.8c0.7-0.4,1.3-0.8,1.7-1.1c0-0.4,0.1-1.1,0.1-1.9l2,0c0,1.4-0.1,2.3-0.1,2.4l0,0.4l-0.3,0.3
				C210.2,27.3,209.3,28.1,207.8,28.8z M152.4,26.5l-0.9-1.8c1.5-0.7,3-1.4,4.7-2l0.7,1.9C155.3,25.2,153.8,25.8,152.4,26.5z
				 M286.3,25.4c-1.3-0.7-2.8-1.5-4.4-2.2l0.9-1.8c1.6,0.8,3.1,1.6,4.5,2.3L286.3,25.4z M161.6,23L161,21c1.7-0.5,2.8-0.8,2.9-0.8
				l0,0c0.4-0.1,1.1-0.3,2.1-0.5l0.4,2c-1.2,0.2-1.9,0.4-2,0.4C164.3,22.2,163.2,22.4,161.6,23z M194.4,22.7c-1.4-1.1-2.7-1.8-4-2.4
				l0.7-1.9c1.5,0.6,3,1.5,4.5,2.7L194.4,22.7z M277.4,21.1c-1.5-0.7-3.1-1.3-4.6-1.9l0.7-1.9c1.5,0.6,3.1,1.2,4.7,1.9L277.4,21.1z
				 M171.2,20.8l-0.3-2c1.7-0.3,3.4-0.6,5-0.8l0.3,2C174.6,20.2,172.9,20.5,171.2,20.8z M181,19.5l-0.2-2c1.9-0.1,3.6-0.2,5.1-0.1
				l-0.1,2C184.5,19.3,182.9,19.4,181,19.5z M208.4,19.3c-0.3-1.9-0.8-3.3-1.5-4.3l1.6-1.1c0.8,1.2,1.4,2.9,1.8,5.1L208.4,19.3z
				 M268.2,17.5c-1.7-0.6-3.3-1.1-4.7-1.5l0.5-1.9c1.5,0.4,3.1,0.9,4.8,1.5L268.2,17.5z M258.8,15.1c-0.2,0-0.3,0-0.5-0.1
				c-1.2-0.1-2.7-0.3-4.5-0.5l0.2-2c1.7,0.2,3.3,0.3,4.5,0.5c0.2,0,0.3,0,0.5,0.1L258.8,15.1z M248.8,14l-5-0.5l0.2-2l5,0.5
				L248.8,14z M238.9,13l-5-0.5l0.2-2l5,0.5L238.9,13z M229,12l-5-0.5l0.2-2l5,0.5L229,12z M219,10.9l-4.9-0.8l0.3-2l4.9,0.8
				L219,10.9z M206.4,10.2l-2,0c0-1.4,0.8-2.2,0.9-2.3l0.2-0.2l2.9-0.6l1,0.1l-0.3,2l-0.6-0.1l-2,0.4
				C206.5,9.7,206.4,9.9,206.4,10.2z"/>
		</g>
	</g>
</g>
</svg>
